<?xml version="1.0" encoding="UTF-8" standalone="no"?>
<svg
   xmlns:dc="http://purl.org/dc/elements/1.1/"
   xmlns:cc="http://creativecommons.org/ns#"
   xmlns:rdf="http://www.w3.org/1999/02/22-rdf-syntax-ns#"
   xmlns:svg="http://www.w3.org/2000/svg"
   xmlns="http://www.w3.org/2000/svg"
   xmlns:sodipodi="http://sodipodi.sourceforge.net/DTD/sodipodi-0.dtd"
   xmlns:inkscape="http://www.inkscape.org/namespaces/inkscape"
   sodipodi:docname="app-icon.svg"
   inkscape:version="1.0 (4035a4fb49, 2020-05-01)"
   id="main"
   version="1.1"
   viewBox="0 0 62.027222 65.701332">
  <defs
     id="defs2">
    <inkscape:path-effect
       hide_knots="false"
       only_selected="true"
       apply_with_radius="true"
       apply_no_radius="true"
       use_knot_distance="true"
       flexible="false"
       chamfer_steps="1"
       radius="80"
       mode="F"
       method="auto"
       unit="px"
       satellites_param="F,0,0,1,0,10.583333,0,1 @ F,0,0,1,0,0,0,1 @ F,0,1,1,0,21.166667,0,1 @ F,0,1,1,0,21.166667,0,1 @ F,0,1,1,0,21.166667,0,1 @ F,0,1,1,0,21.166667,0,1 @ F,0,0,1,0,0,0,1 | F,0,0,1,0,7,0,1 @ F,0,0,1,0,0,0,1 @ F,0,0,1,0,0,0,1 | F,0,0,1,0,0,0,1 @ F,0,1,1,0,15,0,1 @ F,0,1,1,0,15,0,1 @ F,0,0,1,0,0,0,1"
       lpeversion="1"
       is_visible="true"
       id="path-effect878"
       effect="fillet_chamfer" />
    <inkscape:path-effect
       hide_knots="false"
       only_selected="true"
       apply_with_radius="true"
       apply_no_radius="true"
       use_knot_distance="true"
       flexible="false"
       chamfer_steps="1"
       radius="40"
       mode="F"
       method="auto"
       unit="px"
       satellites_param="F,0,1,1,0,10.583333,0,1 @ F,0,0,1,0,0,0,1 @ F,0,0,1,0,13.229167,0,1 @ F,0,0,1,0,13.229167,0,1 @ F,0,0,1,0,13.229167,0,1 @ F,0,0,1,0,13.229167,0,1 @ F,0,0,1,0,13.229167,0,1 @ F,0,0,1,0,0,0,1 | F,0,1,1,0,10.583333,0,1 @ F,0,0,1,0,0,0,1 @ F,0,0,1,0,0,0,1 | F,0,0,1,0,0,0,1 @ F,0,0,1,0,13.229167,0,1 @ F,0,0,1,0,13.229167,0,1 @ F,0,0,1,0,0,0,1"
       lpeversion="1"
       is_visible="true"
       id="path-effect876"
       effect="fillet_chamfer" />
  </defs>
  <sodipodi:namedview
     inkscape:window-maximized="0"
     inkscape:window-y="73"
     inkscape:window-x="73"
     inkscape:window-height="1198"
     inkscape:window-width="1638"
     fit-margin-bottom="0"
     fit-margin-right="0"
     fit-margin-left="0"
     fit-margin-top="0"
     showgrid="false"
     inkscape:document-rotation="0"
     inkscape:current-layer="layer1"
     inkscape:document-units="mm"
     inkscape:cy="35.942609"
     inkscape:cx="23.809955"
     inkscape:zoom="7.9195959"
     inkscape:pageshadow="2"
     inkscape:pageopacity="0.0"
     borderopacity="1.0"
     bordercolor="#666666"
     pagecolor="#ffffff"
     id="base" />
  <metadata
     id="metadata5">
    <rdf:RDF>
      <cc:Work
         rdf:about="">
        <dc:format>image/svg+xml</dc:format>
        <dc:type
           rdf:resource="http://purl.org/dc/dcmitype/StillImage" />
        <dc:title></dc:title>
      </cc:Work>
    </rdf:RDF>
  </metadata>
  <g
     transform="translate(-4.2322998,-8.4956915)"
     id="layer1"
     inkscape:groupmode="layer"
     inkscape:label="レイヤー 1">
    <path
       transform="matrix(0.26458333,0,0,0.26458333,4.2322998,8.4956915)"
       d="M 117.14258 0 A 12.078018 12.078018 0 0 0 109.25977 2.9941406 L 63.400391 43.177734 L 21.166016 43.177734 A 21.166667 21.166667 0 0 0 0 64.34375 L 0 227.15234 A 21.166667 21.166667 0 0 0 21.166016 248.32031 L 213.26758 248.32031 A 21.166667 21.166667 0 0 0 234.43359 227.15234 L 234.43359 64.34375 A 21.166667 21.166667 0 0 0 213.26758 43.177734 L 171.03711 43.177734 L 125.17773 2.9941406 A 12.078018 12.078018 0 0 0 117.14258 0 z M 117.17383 8.5664062 A 7.9885677 7.9885677 0 0 1 122.48438 10.546875 L 159.72266 43.177734 L 74.714844 43.177734 L 111.95312 10.546875 A 7.9885677 7.9885677 0 0 1 117.17383 8.5664062 z M 65.349609 52.400391 A 5.6692912 5.6692912 0 0 1 65.351562 52.400391 A 5.6692912 5.6692912 0 0 1 65.447266 52.400391 A 5.6692912 5.6692912 0 0 1 71.115234 58.070312 A 5.6692912 5.6692912 0 0 1 65.447266 63.738281 A 5.6692912 5.6692912 0 0 1 59.777344 58.070312 A 5.6692912 5.6692912 0 0 1 65.349609 52.400391 z M 168.89062 52.400391 A 5.6692913 5.6692913 0 0 1 168.98633 52.400391 A 5.6692913 5.6692913 0 0 1 174.65625 58.070312 A 5.6692913 5.6692913 0 0 1 168.98633 63.738281 A 5.6692913 5.6692913 0 0 1 163.31836 58.070312 A 5.6692913 5.6692913 0 0 1 168.89062 52.400391 z M 8.0019531 72.890625 L 226.43164 72.890625 L 226.43164 225.31836 A 15 15 0 0 1 211.43164 240.31836 L 23.001953 240.31836 A 15 15 0 0 1 8.0019531 225.31836 L 8.0019531 72.890625 z "
       style="color:#000000;font-style:normal;font-variant:normal;font-weight:normal;font-stretch:normal;font-size:medium;line-height:normal;font-family:sans-serif;font-variant-ligatures:normal;font-variant-position:normal;font-variant-caps:normal;font-variant-numeric:normal;font-variant-alternates:normal;font-variant-east-asian:normal;font-feature-settings:normal;font-variation-settings:normal;text-indent:0;text-align:start;text-decoration:none;text-decoration-line:none;text-decoration-style:solid;text-decoration-color:#000000;letter-spacing:normal;word-spacing:normal;text-transform:none;writing-mode:lr-tb;direction:ltr;text-orientation:mixed;dominant-baseline:auto;baseline-shift:baseline;text-anchor:start;white-space:normal;shape-padding:0;shape-margin:0;inline-size:0;clip-rule:nonzero;display:inline;overflow:visible;visibility:visible;opacity:1;isolation:auto;mix-blend-mode:normal;color-interpolation:sRGB;color-interpolation-filters:linearRGB;solid-color:#000000;solid-opacity:1;vector-effect:none;fill:#000000;fill-opacity:1;fill-rule:nonzero;stroke:none;stroke-width:8.00001;stroke-linecap:butt;stroke-linejoin:miter;stroke-miterlimit:4;stroke-dasharray:none;stroke-dashoffset:0;stroke-opacity:1;paint-order:stroke fill markers;color-rendering:auto;image-rendering:auto;shape-rendering:auto;text-rendering:auto;enable-background:accumulate;stop-color:#000000;stop-opacity:1"
       id="path865" />
    <circle
       r="15.827753"
       cy="50.790546"
       cx="34.632069"
       id="path872"
       style="fill:#aa3333;fill-opacity:1;stroke:none;stroke-width:0.604044;stroke-miterlimit:4;stroke-dasharray:none;stroke-opacity:1;paint-order:stroke markers fill" />
    <path
       d="m 24.338892,34.996247 c 3.665479,-0.04914 8.653811,-0.607179 9.581957,-3.418807 h 7.242738 v 29.154812 c 0,1.02878 0.06715,1.6258 0.609799,2.13741 0.5433,0.51152 2.038315,0.62781 3.277307,0.62552 l 1.15834,-0.002 c 0,0 1.610899,-0.10483 1.610899,1.16227 v 3.52981 h -24.9583 v -3.53023 c 0,-1.19536 1.637105,-1.16178 1.637105,-1.16178 l 1.108548,0.002 c 1.138193,0.002 2.415987,-0.0671 3.12665,-0.63126 0.710696,-0.56345 0.731661,-1.14835 0.731661,-2.13017 v -19.3908 c 0,-0.560987 -0.203266,-0.990615 -0.609799,-1.288553 -0.386223,-0.298102 -0.864661,-0.447153 -1.487727,-0.447153 h -3.029161 z"
       style="font-style:normal;font-variant:normal;font-weight:bold;font-stretch:normal;font-family:'Century Schoolbook';-inkscape-font-specification:'Century Schoolbook Bold';stroke:#ffffff;stroke-width:1.5875;stroke-miterlimit:4;stroke-dasharray:none;stroke-opacity:1;paint-order:stroke markers fill"
       id="digit"
       sodipodi:nodetypes="cccszscsccscszsscscc" />
    <circle
       r="2"
       cy="10.897364"
       cx="35.27906"
       id="path880"
       style="fill:#000000;fill-opacity:1;stroke:none;stroke-width:0.604044;stroke-miterlimit:4;stroke-dasharray:none;stroke-opacity:1;paint-order:stroke markers fill" />
  </g>
</svg>
