<?xml version="1.0" encoding="UTF-8" standalone="no"?>
<svg
   xmlns:dc="http://purl.org/dc/elements/1.1/"
   xmlns:cc="http://creativecommons.org/ns#"
   xmlns:rdf="http://www.w3.org/1999/02/22-rdf-syntax-ns#"
   xmlns:svg="http://www.w3.org/2000/svg"
   xmlns="http://www.w3.org/2000/svg"
   xmlns:sodipodi="http://sodipodi.sourceforge.net/DTD/sodipodi-0.dtd"
   xmlns:inkscape="http://www.inkscape.org/namespaces/inkscape"
   sodipodi:docname="digit-w0.svg"
   inkscape:version="1.0 (4035a4fb49, 2020-05-01)"
   id="base"
   version="1.1"
   viewBox="0 0 3.7680159 4.7810864">
  <defs
     id="defs658" />
  <sodipodi:namedview
     inkscape:window-maximized="0"
     inkscape:window-y="166"
     inkscape:window-x="196"
     inkscape:window-height="1198"
     inkscape:window-width="1638"
     showgrid="false"
     inkscape:document-rotation="0"
     inkscape:current-layer="layer1"
     inkscape:document-units="mm"
     inkscape:cy="3.1164372"
     inkscape:cx="7.1349387"
     inkscape:zoom="31.678384"
     inkscape:pageshadow="2"
     inkscape:pageopacity="0.0"
     borderopacity="1.0"
     bordercolor="#666666"
     pagecolor="#ffffff"
     id="base" />
  <metadata
     id="metadata661">
    <rdf:RDF>
      <cc:Work
         rdf:about="">
        <dc:format>image/svg+xml</dc:format>
        <dc:type
           rdf:resource="http://purl.org/dc/dcmitype/StillImage" />
        <dc:title></dc:title>
      </cc:Work>
    </rdf:RDF>
  </metadata>
  <g
     transform="translate(-48.008849,-55.061838)"
     id="layer1"
     inkscape:groupmode="layer"
     inkscape:label="レイヤー 1">
    <g
       transform="matrix(0.26458333,0,0,0.26458333,-0.04594462,50.743916)"
       id="w0">
      <rect
         y="16.319704"
         x="181.62454"
         height="18.070248"
         width="14.241198"
         id="rect1539-7-0-7-8"
         style="fill:none" />
      <path
         d="m 188.83369,16.332115 c 1.26064,0 2.40309,0.318327 3.42735,0.95498 1.02428,0.628385 1.88112,1.661914 2.57052,3.100586 0.6894,1.430403 1.03411,3.096451 1.03411,4.998144 0,1.918229 -0.33977,3.580144 -1.01934,4.985743 -0.67956,1.405599 -1.5561,2.426725 -2.62961,3.063378 -1.06366,0.636654 -2.23565,0.954981 -3.51598,0.954981 -1.92051,0 -3.50123,-0.706934 -4.74217,-2.120801 -1.5561,-1.752865 -2.33415,-4.022493 -2.33415,-6.808886 0,-1.967839 0.33486,-3.658692 1.00457,-5.072559 0.67957,-1.413867 1.54626,-2.443262 2.60007,-3.088184 1.06367,-0.644921 2.26521,-0.967382 3.60463,-0.967382 z m 1.74508,9.512597 c 0,-3.621484 -0.19869,-5.9986 -0.59604,-7.131347 -0.28774,-0.826823 -0.69196,-1.240235 -1.21263,-1.240235 -0.62344,0 -1.08588,0.591178 -1.38733,1.773535 -0.29459,1.182357 -0.44189,3.464389 -0.44189,6.846094 0,2.827735 0.21238,4.828646 0.63715,6.002734 0.26719,0.727605 0.64743,1.091407 1.14069,1.091407 0.322,0 0.61316,-0.165365 0.8735,-0.496094 0.26719,-0.330729 0.483,-1.033529 0.64741,-2.108399 0.22608,-1.455208 0.33914,-3.03444 0.33914,-4.737695 z"
         id="path855"
         sodipodi:nodetypes="sccsscscsccsscscscsccs" />
    </g>
  </g>
</svg>
