<?xml version="1.0" encoding="UTF-8" standalone="no"?>
<svg
   xmlns:dc="http://purl.org/dc/elements/1.1/"
   xmlns:cc="http://creativecommons.org/ns#"
   xmlns:rdf="http://www.w3.org/1999/02/22-rdf-syntax-ns#"
   xmlns:svg="http://www.w3.org/2000/svg"
   xmlns="http://www.w3.org/2000/svg"
   xmlns:sodipodi="http://sodipodi.sourceforge.net/DTD/sodipodi-0.dtd"
   xmlns:inkscape="http://www.inkscape.org/namespaces/inkscape"
   viewBox="0 0 3.6155841 4.7810864"
   version="1.1"
   id="base"
   inkscape:version="1.0 (4035a4fb49, 2020-05-01)"
   sodipodi:docname="digit-w7.svg">
  <defs
     id="defs571" />
  <sodipodi:namedview
     id="namedview4840"
     pagecolor="#ffffff"
     bordercolor="#666666"
     borderopacity="1.0"
     inkscape:pageopacity="0.0"
     inkscape:pageshadow="2"
     inkscape:zoom="179.2"
     inkscape:cx="0.093482642"
     inkscape:cy="2.1944293"
     inkscape:document-units="mm"
     inkscape:current-layer="layer1"
     inkscape:document-rotation="0"
     showgrid="false"
     inkscape:window-width="1638"
     inkscape:window-height="1198"
     inkscape:window-x="122"
     inkscape:window-y="122"
     inkscape:window-maximized="0" />
  <metadata
     id="metadata574">
    <rdf:RDF>
      <cc:Work
         rdf:about="">
        <dc:format>image/svg+xml</dc:format>
        <dc:type
           rdf:resource="http://purl.org/dc/dcmitype/StillImage" />
        <dc:title></dc:title>
      </cc:Work>
    </rdf:RDF>
  </metadata>
  <g
     inkscape:label="レイヤー 1"
     inkscape:groupmode="layer"
     id="layer1"
     transform="translate(-96.466017,-64.133267)">
    <g
       id="w7"
       transform="matrix(0.26458333,0,0,0.26458333,61.990074,59.815345)">
      <path
         sodipodi:nodetypes="cccczzzccssszzzcsssscc"
         id="path849"
         d="m 131.29256,16.46854 c 0.99191,0.173568 1.77273,0.244874 2.51141,0.248047 h 10.16389 v 2.631438 c -1.83188,1.605589 -2.14985,1.693362 -3.00218,2.781335 -0.85233,1.087973 -1.88491,2.261642 -2.37364,4.134936 -0.48872,1.873293 -0.23871,2.982447 -0.28528,4.610789 -0.0466,1.628341 -0.21137,2.062332 -0.45066,2.450939 -0.22599,0.380339 -0.35801,0.590419 -0.87645,0.805393 -0.50514,0.214974 -0.81729,0.25851 -1.54841,0.25851 -0.91724,0 -1.18896,-0.165365 -1.66007,-0.496094 -0.4711,-0.330729 -0.70665,-0.814421 -0.70665,-1.451074 0,-0.355534 0.0243,-0.776573 0.1496,-1.394875 0.12535,-0.618303 0.42493,-1.632366 0.87293,-2.880094 0.44801,-1.247728 1.20868,-2.630408 2.34035,-4.314965 1.13168,-1.684558 4.40555,-4.023249 4.40555,-4.023249 h -5.54672 c -0.68941,0 -1.16708,0.165364 -1.43299,0.496093 -0.26591,0.330729 -0.50416,0.766327 -0.84635,1.804363 -0.089,0.269857 -0.40927,0.528047 -0.72615,0.527941 l -1.97795,-6.63e-4 z" />
    </g>
  </g>
</svg>
