<?xml version="1.0" encoding="UTF-8" standalone="no"?>
<svg
   xmlns:dc="http://purl.org/dc/elements/1.1/"
   xmlns:cc="http://creativecommons.org/ns#"
   xmlns:rdf="http://www.w3.org/1999/02/22-rdf-syntax-ns#"
   xmlns:svg="http://www.w3.org/2000/svg"
   xmlns="http://www.w3.org/2000/svg"
   xmlns:sodipodi="http://sodipodi.sourceforge.net/DTD/sodipodi-0.dtd"
   xmlns:inkscape="http://www.inkscape.org/namespaces/inkscape"
   sodipodi:docname="digits.svg"
   inkscape:version="1.0 (4035a4fb49, 2020-05-01)"
   id="svg8"
   version="1.1"
   viewBox="0 0 14.418858 18.220145">
  <defs
     id="defs2" />
  <sodipodi:namedview
     inkscape:window-maximized="1"
     inkscape:window-y="-6"
     inkscape:window-x="-6"
     inkscape:window-height="1378"
     inkscape:window-width="2560"
     inkscape:lockguides="true"
     fit-margin-bottom="0"
     fit-margin-right="0"
     fit-margin-left="0"
     fit-margin-top="0"
     units="px"
     showgrid="false"
     inkscape:document-rotation="0"
     inkscape:current-layer="layer21"
     inkscape:document-units="mm"
     inkscape:cy="157.73458"
     inkscape:cx="239.12186"
     inkscape:zoom="1.979899"
     inkscape:pageshadow="2"
     inkscape:pageopacity="0.0"
     borderopacity="1.0"
     bordercolor="#666666"
     pagecolor="#ffffff"
     id="base" />
  <metadata
     id="metadata5">
    <rdf:RDF>
      <cc:Work
         rdf:about="">
        <dc:format>image/svg+xml</dc:format>
        <dc:type
           rdf:resource="http://purl.org/dc/dcmitype/StillImage" />
        <dc:title></dc:title>
      </cc:Work>
    </rdf:RDF>
  </metadata>
  <g
     style="display:none"
     inkscape:label="n0"
     id="layer21"
     inkscape:groupmode="layer">
    <g
       transform="translate(-116.76132,-37.48637)"
       id="n0">
      <rect
         style="fill:none"
         id="rect1716"
         width="8.2825165"
         height="18.070002"
         x="116.76141"
         y="37.48637" />
      <path
         sodipodi:nodetypes="sccsscscsccscssscszsc"
         id="path855-1"
         d="m 120.95417,37.498782 c 0.73318,0 1.39762,0.318327 1.99332,0.95498 0.59571,0.628385 1.09405,1.661914 1.495,3.100586 0.40095,1.430403 0.60143,3.096451 0.60143,4.998144 0,1.918229 -0.19761,3.580144 -0.59284,4.985743 -0.39523,1.405599 -0.90502,2.426725 -1.52936,3.063378 -0.61862,0.636654 -1.30024,0.954981 -2.04487,0.954981 -1.11696,0 -2.03629,-0.706934 -2.75801,-2.120801 -0.90502,-1.752865 -1.35752,-4.022493 -1.35752,-6.808886 0,-1.967839 0.19475,-3.658692 0.58425,-5.072559 0.39523,-1.413867 0.89929,-2.443262 1.51218,-3.088184 0.61862,-0.644921 1.31742,-0.967382 2.09642,-0.967382 z m 0.64599,9.843326 v -7.462076 c 0,-1.074916 -0.3045,-1.240235 -0.67854,-1.240235 -0.44787,0 -0.72465,0.126235 -0.72465,1.230194 v 7.354 l -4.4e-4,6.061793 c -8e-5,0.976447 0.35883,1.067783 0.68814,1.067783 0.3293,0 0.71497,-0.129525 0.71504,-1.063059 z" />
    </g>
  </g>
  <g
     style="display:none"
     inkscape:label="n9"
     id="layer20"
     inkscape:groupmode="layer">
    <g
       transform="translate(-106.83766,-37.48637)"
       id="n9">
      <rect
         y="37.48637"
         x="106.83768"
         height="18.070002"
         width="8.2825165"
         id="rect1714"
         style="fill:none" />
      <path
         sodipodi:nodetypes="cscsccscscssscssscszzcccscscscsc"
         id="path853-4"
         d="m 111.36238,47.982896 c 0,0 -0.56099,0.504362 -1.3629,0.504362 -0.76181,0 -1.43484,-0.3514 -2.01909,-1.054199 -0.76182,-0.909505 -1.14273,-2.195215 -1.14273,-3.857129 0,-1.207161 0.16898,-2.273763 0.50693,-3.199805 0.34367,-0.934309 0.81909,-1.645377 1.42625,-2.133203 0.61289,-0.496093 1.32316,-0.74414 2.1308,-0.74414 1.24869,0 2.22817,0.636654 2.93843,1.909961 0.85347,1.53789 1.2802,3.604947 1.2802,6.201171 0,3.067513 -0.51838,5.547982 -1.55514,7.441407 -0.9222,1.670182 -2.0506,2.505273 -3.38521,2.505273 -0.84773,0 -1.54941,-0.322461 -2.10502,-0.967383 -0.55561,-0.644922 -0.83342,-1.598384 -0.83342,-2.567913 0,-0.747345 0.12888,-1.358349 0.38664,-1.833014 0.25776,-0.484764 0.70928,-0.785612 1.08733,-0.785612 0.58528,0 0.88745,0.06695 1.05544,0.2628 0.24123,0.28124 0.35593,0.484396 0.36173,0.927719 l 0.0245,1.873433 0.01,1.174766 c 0.005,0.560765 0.37495,0.69598 0.57879,0.703316 0.20384,0.0073 0.5951,-0.14621 0.61676,-0.687614 0.0217,-0.541404 -2.9e-4,-2.295611 -2.9e-4,-2.295611 z m -0.49929,-9.355501 c -0.306,0 -0.70557,0.132731 -0.70557,0.979785 v 3.398242 2.976563 c 0,0.745822 0.33399,0.868164 0.61815,0.868164 0.30965,0 0.58671,-0.217624 0.58671,-0.887156 V 42.57134 39.383938 c 0,-0.551863 -0.24086,-0.756543 -0.49929,-0.756543 z" />
    </g>
  </g>
  <g
     style="display:none"
     inkscape:label="n8"
     id="layer19"
     inkscape:groupmode="layer">
    <g
       transform="translate(-96.793719,-37.48637)"
       id="n8">
      <rect
         style="fill:none"
         id="rect1712"
         width="8.2825165"
         height="18.070002"
         x="96.793831"
         y="37.48637" />
      <path
         sodipodi:nodetypes="ccssscsccsscssssccscszscsccsszscssc"
         id="path851-8"
         d="m 102.55071,44.999837 c 1.01957,0.628385 1.55759,1.27567 1.94136,2.036347 0.3895,0.752409 0.58425,1.703255 0.58425,2.852539 0,1.678451 -0.38091,3.042708 -1.14272,4.092773 -0.76182,1.050065 -1.79572,1.575098 -3.10168,1.575098 -1.26588,0 -2.256811,-0.42168 -2.972804,-1.265039 -0.710265,-0.843359 -1.065397,-1.922363 -1.065397,-3.237012 0,-0.975651 0.197611,-1.798339 0.592841,-2.468066 0.400951,-0.669727 1.002389,-1.390834 1.938931,-2.045205 -0.864924,-0.603581 -1.251577,-0.976833 -1.57807,-1.663096 -0.326493,-0.686263 -0.489736,-1.508951 -0.489736,-2.468066 0,-1.347721 0.349403,-2.501139 1.048209,-3.460254 0.704535,-0.967383 1.589507,-1.451074 2.654906,-1.451074 1.05394,0 1.90453,0.367936 2.55179,1.103808 0.64726,0.735873 0.97089,1.591634 0.97089,2.567285 0,0.719336 -0.15179,1.380794 -0.45537,1.984375 -0.30358,0.603581 -0.71968,1.132156 -1.4774,1.845587 z m -1.2874,-0.559877 c 0.26999,-0.259529 0.32837,-0.78576 0.32034,-1.240151 l -0.0301,-1.703926 -0.0351,-2.200021 c -0.01,-0.613077 -0.29581,-0.699555 -0.52494,-0.693272 -0.22913,0.0063 -0.51452,0.187618 -0.52608,0.740091 l -0.0406,1.941262 0.0217,1.66782 c 0.0105,0.803905 0.19591,1.122033 0.81478,1.488197 z m -0.7732,2.820647 c 0,0 -0.4444,0.820675 -0.44333,1.423317 l 0.004,2.243643 0.0773,2.557836 c 0.0195,0.6444 0.23188,0.904996 0.66504,0.930175 0.43316,0.02518 0.5791,-0.243739 0.57591,-0.90419 l -0.0106,-2.21116 -0.0369,-2.641108 c -0.0139,-0.991712 -0.83142,-1.398513 -0.83142,-1.398513 z" />
    </g>
  </g>
  <g
     style="display:none"
     inkscape:label="n7"
     id="layer18"
     inkscape:groupmode="layer">
    <g
       transform="translate(-86.912964,-37.48637)"
       id="n7">
      <rect
         y="37.48637"
         x="86.912964"
         height="18.070002"
         width="7.9475541"
         id="rect1710"
         style="fill:none" />
      <path
         sodipodi:nodetypes="cccczzzccssszzzcssccc"
         id="path849-3"
         d="m 87.488684,37.635207 c 0.576887,0.173568 1.031008,0.244874 1.460619,0.248047 h 5.911241 v 2.631438 c -1.065411,1.605589 -1.250337,1.858727 -1.746045,2.9467 -0.495709,1.087973 -0.90292,2.874463 -0.966734,4.280034 -0.06381,1.405571 0.191652,2.671984 0.157982,4.300326 -0.03365,1.628341 -0.152674,2.062332 -0.325515,2.450939 -0.163232,0.380339 -0.258588,0.590419 -0.633067,0.805393 -0.36486,0.214974 -0.590332,0.25851 -1.118423,0.25851 -0.662535,0 -0.858796,-0.165365 -1.199085,-0.496094 -0.34028,-0.330729 -0.510419,-0.814421 -0.510419,-1.451074 0,-0.355534 0.01755,-0.776573 0.10805,-1.394875 0.09055,-0.618303 0.306931,-1.632366 0.630528,-2.880094 0.323597,-1.247728 0.702107,-2.630408 1.43283,-4.314965 0.730725,-1.684558 2.196311,-4.023249 2.196311,-4.023249 h -2.975435 c -0.345837,0 -0.685608,0.165364 -0.819,0.496093 -0.133392,0.330729 -0.289017,1.107943 -0.466878,2.331641 H 86.91303 Z" />
    </g>
  </g>
  <g
     style="display:none"
     inkscape:label="n6"
     id="layer17"
     inkscape:groupmode="layer">
    <g
       transform="translate(-76.5254,-37.48637)"
       id="n6">
      <rect
         style="fill:none"
         id="rect1708"
         width="8.2825165"
         height="18.070002"
         x="76.525421"
         y="37.48637" />
      <path
         sodipodi:nodetypes="csssscscszszsssssczzccczscssscsz"
         id="path847-3"
         d="m 80.153526,44.949824 0.381245,-0.211274 c 0,0 0.406339,-0.232444 0.948727,-0.232444 0.673839,0 1.692044,0.417545 2.345024,1.252636 0.652987,0.835091 0.97948,2.091862 0.97948,3.770313 0,1.810742 -0.369452,3.270084 -1.108355,4.378027 -0.738903,1.099675 -1.704064,1.649512 -2.895474,1.649512 -1.260147,0 -2.259676,-0.657324 -2.998579,-1.971973 -0.853462,-1.529622 -1.280194,-3.629752 -1.280194,-6.30039 0,-3.026172 0.637321,-5.567816 1.546541,-7.317383 0.90922,-1.749567 1.579774,-2.458618 2.878462,-2.468066 1.170714,-0.0085 1.946327,0.341955 2.544571,1.038824 0.598244,0.696869 0.867175,1.271199 0.867175,2.184099 0,0.657288 -0.0066,1.40742 -0.25931,1.832989 -0.328779,0.553569 -0.890548,0.761254 -1.28304,0.78024 -0.345308,0.01671 -0.758613,-0.08647 -1.014075,-0.313183 -0.209906,-0.186282 -0.353198,-0.493633 -0.353198,-0.754201 v -1.004937 c 0,0 0.0095,-1.084111 0,-1.67462 -0.0095,-0.590508 -0.402158,-0.816012 -0.622898,-0.806512 -0.22074,0.0095 -0.686084,0.197033 -0.687914,0.825108 l 0.0076,2.721734 z m 0.634233,1.193393 c -0.313664,0.0055 -0.645207,0.237957 -0.634376,1.00518 l 0.04198,2.97361 0.05916,3.3758 c 0.01073,0.612459 0.303091,0.892969 0.593942,0.892969 0.294681,0 0.604057,-0.230092 0.604058,-0.896512 l 3e-6,-3.369895 v -2.99487 c 0,-0.797938 -0.351103,-0.991782 -0.664767,-0.986282 z" />
    </g>
  </g>
  <g
     style="display:none"
     inkscape:label="n5"
     id="layer16"
     inkscape:groupmode="layer">
    <g
       transform="translate(-66.464272,-37.48637)"
       id="n5">
      <rect
         y="37.48637"
         x="66.464378"
         height="18.070002"
         width="7.8615646"
         id="rect1706"
         style="fill:none" />
      <path
         sodipodi:nodetypes="ccscsscsscccscscscszssscsssccsszsccc"
         id="path845-1"
         d="m 67.615588,37.486379 c 0.198687,0.142481 0.829748,0.402226 0.829748,0.402226 l 4.473722,-0.01116 c 0.23035,-5.75e-4 0.477323,0.03888 0.803399,-0.21743 0.131896,-0.107487 0.153103,-0.16123 0.18747,-0.16123 0.08019,0 0.120287,0.08268 0.120287,0.248047 0,0.545703 -0.1633,1.274277 -0.285774,1.74873 -0.186853,0.852429 -0.432326,1.494592 -0.73642,1.92649 -0.304093,0.431898 -2.181921,0.31376 -2.90937,0.31376 -0.549882,0 -1.864444,-0.0069 -1.864444,-0.0069 l -0.189023,2.814389 c 0.429596,-0.28112 0.833416,-0.487826 1.21146,-0.620117 0.383771,-0.14056 0.741768,-0.21084 1.073989,-0.21084 1.099764,0 2.039147,0.525032 2.818147,1.575097 0.784727,1.041797 1.177092,2.434994 1.177092,4.17959 0,1.794206 -0.40382,3.257683 -1.21146,4.39043 -0.801911,1.132747 -1.86158,1.699121 -3.179007,1.699121 -1.048213,0 -1.890221,-0.396875 -2.526022,-1.190625 -0.630073,-0.79375 -0.94511,-1.752865 -0.94511,-2.877344 0,-0.735872 0.122924,-1.13063 0.412411,-1.761133 0.289487,-0.630503 0.798063,-0.936406 1.337653,-0.936406 0.499611,0 0.770296,0.08147 0.9543,0.252444 0.221443,0.20576 0.36289,0.463018 0.36289,0.893322 v 1.635127 l 3.84e-4,2.074317 c 1.06e-4,0.57449 0.348696,0.673018 0.625163,0.658842 0.266675,-0.01367 0.623067,-0.06731 0.641336,-0.648043 l 1.17e-4,-4.263285 v -3.33505 c -0.0074,-0.682719 -0.29548,-0.944225 -0.673691,-1.018173 -0.341743,-0.06682 -0.905424,0.0939 -1.203277,0.234464 -0.297853,0.14056 -0.534701,0.303787 -0.719278,0.523942 -0.184577,0.220155 -0.393412,0.772152 -0.435432,0.91898 -0.09257,0.32347 -0.746207,0.174378 -0.746207,0.174378 0.262959,-3.497935 0.439458,-6.060141 0.594947,-9.405968 z" />
    </g>
  </g>
  <g
     style="display:none"
     inkscape:label="n4"
     id="layer15"
     inkscape:groupmode="layer">
    <g
       transform="translate(-56.067841,-37.48637)"
       id="n4">
      <rect
         style="fill:none"
         id="rect1704"
         width="8.385704"
         height="18.070002"
         x="56.067841"
         y="37.48637" />
      <path
         sodipodi:nodetypes="ccccccccscsccccscscccccccc"
         id="path843-7"
         d="m 60.83657,37.560793 h 1.898812 l -1.22e-4,10.192911 h 0.776134 c 0.466418,0 0.669132,-0.81265 0.669132,-0.81265 l 0.273116,0.0024 1.23e-4,3.962298 h -1.718383 v 1.050065 c 0,0.338998 0.168504,0.595313 0.309551,0.768946 0.147178,0.165364 0.433094,0.248047 0.680698,0.248047 h 0.487526 v 2.211751 H 58.48242 V 52.97281 h 0.545785 c 0.367944,0 0.616307,-0.09509 0.745088,-0.285254 0.171707,-0.239779 0.34442,-0.696026 0.34442,-1.103809 v -0.677995 h -4.049654 l -1.22e-4,-3.462069 z m -0.718857,4.357357 -2.823997,5.835554 h 2.823874 z" />
    </g>
  </g>
  <g
     style="display:none"
     inkscape:label="n3"
     id="layer14"
     inkscape:groupmode="layer">
    <g
       transform="translate(-46.323765,-37.48637)"
       id="n3">
      <rect
         y="37.48637"
         x="46.323765"
         height="18.070002"
         width="7.9226832"
         id="rect1539-2-5"
         style="fill:none" />
      <path
         sodipodi:nodetypes="ssssscscsssccszcsccszccscszscssszscsccscss"
         id="path841-6"
         d="m 51.411242,45.870364 c 0.939382,0.363802 1.646783,0.95498 2.122202,1.773535 0.475419,0.818555 0.713129,1.794206 0.713129,2.926953 0,1.488281 -0.369453,2.691309 -1.108357,3.609082 -0.738904,0.917773 -1.772798,1.37666 -3.10168,1.37666 -1.179956,0 -2.093562,-0.396875 -2.74082,-1.190625 -0.647257,-0.802018 -0.992897,-1.823551 -0.970885,-3.063379 0.02314,-1.303652 0.270608,-1.790471 0.603526,-2.412603 0.254333,-0.441283 0.647723,-0.761852 1.060135,-0.761852 0.275529,0 0.82173,0.09035 1.153854,0.478841 0.230666,0.269813 0.227212,0.64754 0.22718,0.878218 l -2.85e-4,2.037178 2.85e-4,1.97646 c -0.005,0.6885 0.394617,0.861905 0.598316,0.86452 0.350542,0.0045 0.90322,-0.189149 0.915862,-0.868842 0.01264,-0.679694 0.05592,-2.977066 0.05592,-2.977066 l -9.8e-5,-2.56965 c -1.4e-5,-0.35463 -0.06676,-0.58138 -0.145985,-0.758459 -0.205568,-0.415773 -0.493678,-0.551429 -1.004752,-0.56673 -0.803399,-0.007 -1.246973,-0.09219 -1.386726,-0.283344 -0.123393,-0.168778 -0.105734,-0.382871 -0.01193,-0.589377 0.09381,-0.206506 0.521499,-0.350991 1.362841,-0.363208 0.515515,0 0.747438,-0.22088 0.992497,-0.73351 0.07223,-0.151633 0.06229,-0.463355 0.0579,-0.803912 l -0.02234,-1.732072 -0.05518,-2.608626 c -0.01077,-0.509001 -0.382234,-0.719468 -0.632929,-0.720013 -0.250695,-5.45e-4 -0.622424,0.197345 -0.616381,0.736834 l 0.01678,1.497718 0.01381,1.577084 c 0.0036,0.405411 -0.06496,0.702472 -0.193935,0.860285 -0.214884,0.262929 -0.673411,0.51466 -1.050484,0.429054 -0.346916,-0.07876 -0.741223,-0.348134 -0.985787,-0.762355 -0.244564,-0.414221 -0.496747,-1.10979 -0.496747,-1.746444 0,-0.909505 0.231982,-1.72806 0.695945,-2.455664 0.595706,-0.950846 1.466353,-1.426269 2.611941,-1.426269 0.767544,0 1.429121,0.194303 1.984732,0.58291 0.561338,0.380339 0.985206,0.901237 1.271602,1.562695 0.292126,0.65319 0.438188,1.372526 0.438188,2.158008 0,0.851627 -0.183294,1.616438 -0.549882,2.294433 -0.360861,0.677995 -0.968022,1.269174 -1.821486,1.773536 z" />
    </g>
  </g>
  <g
     style="display:none"
     inkscape:label="n2"
     id="layer13"
     inkscape:groupmode="layer">
    <g
       transform="translate(-36.057487,-37.48653)"
       id="n2">
      <rect
         style="fill:none"
         id="rect1539-2"
         width="8.0592079"
         height="18.070002"
         x="36.057487"
         y="37.48653" />
      <path
         sodipodi:nodetypes="csccccccccczszcscscscssscsccc"
         id="path839-9"
         d="m 38.314713,51.381379 3.587455,3.46e-4 c 0.423756,4.1e-5 0.870229,-0.209394 1.009289,-0.383686 0.143032,-0.174292 0.53713,-0.551249 0.636458,-1.130872 h 0.568794 l -0.01228,5.206912 -8.046939,0.02362 v -1.066601 c 0.09083,-0.967383 -0.01432,-2.234784 1.222916,-4.227427 1.094036,-1.769401 2.705493,-3.871894 3.09879,-4.701079 0.49246,-1.027768 0.3492,-3.072661 0.3492,-3.072661 0,0 0.01137,-1.866275 0.0059,-2.402005 -0.0055,-0.53573 -0.405431,-0.71211 -0.605254,-0.708788 -0.248733,0.0041 -0.69486,0.205342 -0.703475,0.758384 -0.0086,0.553042 0.0054,1.356256 0.0054,1.356256 0,0 0.02038,1.367543 0.01582,2.25689 -0.0029,0.5705 -0.104231,1.041797 -0.312692,1.413867 -0.204025,0.363802 -0.828347,0.545703 -1.229302,0.545703 -0.41814,0 -0.764681,-0.252181 -1.039622,-0.756543 -0.274941,-0.51263 -0.412412,-1.231966 -0.412412,-2.158007 0,-1.289844 0.292125,-2.368848 0.876376,-3.237012 0.715992,-1.066601 1.689742,-1.599902 2.921249,-1.599902 1.099765,0 1.987596,0.44235 2.663493,1.32705 0.675897,0.884701 1.013845,1.976107 1.013845,3.274219 0,0.694531 -0.08306,1.331185 -0.249165,1.909961 -0.22339,0.785482 -0.521243,1.484147 -0.893559,2.095996 -0.372316,0.611849 -1.082652,1.323351 -1.991583,2.413732 -0.873287,0.969957 -1.999103,2.313714 -2.478668,2.861647 z" />
    </g>
  </g>
  <g
     style="display:inline"
     inkscape:label="n1"
     id="layer12"
     inkscape:groupmode="layer">
    <g
       transform="translate(-26.600665,-37.486519)"
       id="n1">
      <rect
         y="37.486519"
         x="26.600748"
         height="18.07"
         width="7.0339479"
         id="rect1539"
         style="fill:none" />
      <path
         sodipodi:nodetypes="csccscsccccscsscscc"
         id="path837-1"
         d="m 27.017031,39.532766 c 0.703805,-0.08268 1.087789,-0.248047 1.416576,-0.496094 0.328786,-0.248047 0.848065,-0.620117 1.283877,-1.116211 h 2.041192 v 14.122136 c 0,0.297656 0.05728,0.529166 0.171839,0.694531 0.114558,0.157097 0.280409,0.153082 0.472554,0.235645 h 1.231507 v 2.211751 h -7.033911 v -2.211751 h 0.976204 c 0.320765,0 0.547019,-0.09922 0.678761,-0.297657 0.137471,-0.206705 0.206206,-0.541568 0.206206,-1.004589 v -9.144661 c 0,-0.264583 -0.05728,-0.467155 -0.171838,-0.607715 -0.108831,-0.14056 -0.243692,-0.21084 -0.419266,-0.21084 h -0.853701 z" />
    </g>
  </g>
  <g
     style="display:none"
     inkscape:label="w0"
     id="layer11"
     inkscape:groupmode="layer">
    <g
       transform="translate(-181.62442,-16.319704)"
       id="w0">
      <rect
         y="16.319704"
         x="181.62454"
         height="18.070248"
         width="14.241198"
         id="rect1539-7-0-7-8"
         style="fill:none" />
      <path
         d="m 188.83369,16.332115 c 1.26064,0 2.40309,0.318327 3.42735,0.95498 1.02428,0.628385 1.88112,1.661914 2.57052,3.100586 0.6894,1.430403 1.03411,3.096451 1.03411,4.998144 0,1.918229 -0.33977,3.580144 -1.01934,4.985743 -0.67956,1.405599 -1.5561,2.426725 -2.62961,3.063378 -1.06366,0.636654 -2.23565,0.954981 -3.51598,0.954981 -1.92051,0 -3.50123,-0.706934 -4.74217,-2.120801 -1.5561,-1.752865 -2.33415,-4.022493 -2.33415,-6.808886 0,-1.967839 0.33486,-3.658692 1.00457,-5.072559 0.67957,-1.413867 1.54626,-2.443262 2.60007,-3.088184 1.06367,-0.644921 2.26521,-0.967382 3.60463,-0.967382 z m 1.74508,9.512597 c 0,-3.621484 -0.19869,-5.9986 -0.59604,-7.131347 -0.28774,-0.826823 -0.69196,-1.240235 -1.21263,-1.240235 -0.62344,0 -1.08588,0.591178 -1.38733,1.773535 -0.29459,1.182357 -0.44189,3.464389 -0.44189,6.846094 0,2.827735 0.21238,4.828646 0.63715,6.002734 0.26719,0.727605 0.64743,1.091407 1.14069,1.091407 0.322,0 0.61316,-0.165365 0.8735,-0.496094 0.26719,-0.330729 0.483,-1.033529 0.64741,-2.108399 0.22608,-1.455208 0.33914,-3.03444 0.33914,-4.737695 z"
         id="path855"
         sodipodi:nodetypes="sccsscscsccsscscscsccs" />
    </g>
  </g>
  <g
     style="display:none"
     inkscape:label="w9"
     id="layer9"
     inkscape:groupmode="layer">
    <g
       transform="translate(-164.56153,-16.319704)"
       id="w9">
      <rect
         y="16.319704"
         x="164.56155"
         height="18.070248"
         width="14.241198"
         id="rect1539-7-0-7-7"
         style="fill:none" />
      <path
         d="m 173.5864,25.745493 -0.19863,0.161231 c -1.07595,0.942578 -2.01094,1.413867 -3.38975,1.413867 -1.30988,0 -2.46711,-0.3514 -3.47168,-1.054199 -1.30987,-0.909505 -1.96481,-2.195215 -1.96481,-3.857129 0,-1.207161 0.29053,-2.273763 0.87161,-3.199805 0.59092,-0.934309 1.40837,-1.645377 2.45233,-2.133203 1.05381,-0.496093 2.27505,-0.74414 3.66372,-0.74414 2.14702,0 3.83115,0.636654 5.05239,1.909961 1.46747,1.53789 2.20119,3.604947 2.20119,6.201171 0,3.067513 -0.8913,5.547982 -2.67392,7.441407 -1.58565,1.670182 -3.52584,2.505273 -5.8206,2.505273 -1.4576,0 -2.66407,-0.322461 -3.6194,-0.967383 -0.95533,-0.644922 -1.43299,-1.598384 -1.43299,-2.567913 0,-0.747345 0.2216,-1.358349 0.66479,-1.833014 0.4432,-0.484764 0.98979,-0.727147 1.63982,-0.727147 1.08758,0 1.47332,0.371543 1.75729,0.621104 0.28002,0.246098 0.53464,0.92878 0.47836,1.521563 -0.0562,0.592782 -0.0107,1.53346 0.20371,2.037586 0.21438,0.504126 0.67197,0.69598 1.02246,0.703316 0.35048,0.0073 0.96577,-0.22138 1.3764,-0.729375 0.41064,-0.507994 0.77057,-1.14574 0.94437,-2.237146 0.17724,-1.112989 0.22679,-2.564332 0.24334,-4.466025 z m -2.10348,-8.284765 c -0.52615,0 -1.17544,0.326595 -1.59189,0.979785 -0.40845,0.65319 -0.61267,1.785937 -0.61267,3.398242 0,1.397331 0.1842,2.389518 0.55261,2.976563 0.3764,0.578776 1.01304,0.868164 1.50162,0.868164 0.53243,0 1.17481,-0.3514 1.6293,-1.054199 0.46217,-0.711068 0.69326,-1.785938 0.69326,-3.22461 0,-1.455208 -0.25805,-2.517675 -0.77415,-3.187402 -0.38515,-0.504362 -0.95335,-0.756543 -1.39808,-0.756543 z"
         id="path853"
         sodipodi:nodetypes="ccscsccscscssscsszzzzscscscscscs" />
    </g>
  </g>
  <g
     style="display:none"
     inkscape:label="w8"
     id="layer10"
     inkscape:groupmode="layer">
    <g
       transform="translate(-147.29167,-16.319704)"
       id="w8">
      <rect
         y="16.319704"
         x="147.29167"
         height="18.070248"
         width="14.241198"
         id="rect1539-7-0-7-97"
         style="fill:none" />
      <path
         d="m 157.19046,23.83317 c 1.75308,0.628385 2.67815,1.27567 3.33801,2.036347 0.66972,0.752409 1.00457,1.703255 1.00457,2.852539 0,1.678451 -0.65494,3.042708 -1.96481,4.092773 -1.30989,1.050065 -3.08759,1.575098 -5.33309,1.575098 -2.17657,0 -3.88039,-0.42168 -5.11148,-1.265039 -1.22124,-0.843359 -1.83186,-1.922363 -1.83186,-3.237012 0,-0.975651 0.33977,-1.798339 1.01934,-2.468066 0.6894,-0.669727 1.72352,-1.449893 3.4963,-1.962523 -1.48716,-0.603581 -2.31445,-1.059515 -2.87583,-1.745778 -0.56138,-0.686263 -0.84206,-1.508951 -0.84206,-2.468066 0,-1.347721 0.60077,-2.501139 1.8023,-3.460254 1.21139,-0.967383 2.73303,-1.451074 4.56489,-1.451074 1.81216,0 3.27469,0.367936 4.3876,1.103808 1.11291,0.735873 1.66936,1.591634 1.66936,2.567285 0,0.719336 -0.26099,1.380794 -0.78298,1.984375 -0.52197,0.603581 -1.23741,1.132156 -2.54026,1.845587 z m -1.67076,-0.559877 c 0.55039,-0.409868 0.88947,-0.810286 1.09653,-1.248503 0.21446,-0.446484 0.32168,-0.992187 0.32168,-1.637109 0,-0.884701 -0.24034,-1.595768 -0.721,-2.133203 -0.48068,-0.545703 -1.05964,-0.818555 -1.7039,-0.818555 -0.6021,0 -1.21153,0.243913 -1.65787,0.731739 -0.43913,0.479557 -0.65868,1.087271 -0.65868,1.823144 0,0.694531 0.20877,1.289844 0.6263,1.785938 0.42473,0.487825 1.44818,0.99455 2.69694,1.496549 z m -1.99413,2.844271 c -0.47854,0.338997 -1.23526,0.79375 -1.5691,1.364258 -0.33385,0.562239 -0.50078,1.302246 -0.50078,2.220019 0,1.116211 0.27449,1.988509 0.82351,2.616895 0.54899,0.620117 1.23604,0.917267 1.88939,0.930175 0.65336,0.01291 1.54183,-0.293522 2.06459,-0.880566 0.52938,-0.595313 0.79407,-1.35599 0.79407,-2.282031 0,-0.892969 -0.25808,-1.604036 -0.77423,-2.133203 -0.51613,-0.529167 -1.56652,-1.23551 -2.72745,-1.835547 z"
         id="path851"
         sodipodi:nodetypes="ccssscsccsscsssscccscscsccccsczcssc" />
    </g>
  </g>
  <g
     style="display:none"
     inkscape:label="w7"
     id="layer8"
     inkscape:groupmode="layer">
    <g
       transform="translate(-130.30278,-16.319704)"
       id="w7">
      <rect
         y="16.319704"
         x="130.30278"
         height="18.070248"
         width="13.6652"
         id="rect1539-7-0-7-9"
         style="fill:none" />
      <path
         d="m 131.29256,16.46854 c 0.99191,0.173568 1.77273,0.244874 2.51141,0.248047 h 10.16389 v 2.631438 c -1.83188,1.605589 -2.14985,1.693362 -3.00218,2.781335 -0.85233,1.087973 -1.88491,2.261642 -2.37364,4.134936 -0.48872,1.873293 -0.23871,2.982447 -0.28528,4.610789 -0.0466,1.628341 -0.21137,2.062332 -0.45066,2.450939 -0.22599,0.380339 -0.35801,0.590419 -0.87645,0.805393 -0.50514,0.214974 -0.81729,0.25851 -1.54841,0.25851 -0.91724,0 -1.18896,-0.165365 -1.66007,-0.496094 -0.4711,-0.330729 -0.70665,-0.814421 -0.70665,-1.451074 0,-0.355534 0.0243,-0.776573 0.1496,-1.394875 0.12535,-0.618303 0.42493,-1.632366 0.87293,-2.880094 0.44801,-1.247728 1.20868,-2.630408 2.34035,-4.314965 1.13168,-1.684558 4.40555,-4.023249 4.40555,-4.023249 h -5.54672 c -0.68941,0 -1.16708,0.165364 -1.43299,0.496093 -0.26591,0.330729 -0.57615,1.107943 -0.93071,2.331641 h -2.61974 z"
         id="path849"
         sodipodi:nodetypes="cccczzzccssszzzcssccc" />
    </g>
  </g>
  <g
     style="display:none"
     inkscape:label="w6"
     id="layer7"
     inkscape:groupmode="layer">
    <g
       transform="translate(-112.44209,-16.332115)"
       id="w6">
      <rect
         style="fill:none"
         id="rect1539-7-0-7"
         width="14.241198"
         height="18.070248"
         x="112.44209"
         y="16.371744" />
      <path
         d="m 117.6796,25.03856 c -0.75824,0 1.05984,-0.996322 1.61975,-1.277442 0.55991,-0.281119 1.06015,-0.421679 1.66779,-0.421679 1.15861,0 2.90933,0.417545 4.03208,1.252636 1.12275,0.835091 1.68413,2.091862 1.68413,3.770313 0,1.810742 -0.63524,3.270084 -1.90572,4.378027 -1.27049,1.099675 -2.93,1.649512 -4.97853,1.649512 -2.16672,0 -3.88533,-0.657324 -5.15581,-1.971973 -1.46746,-1.529622 -2.20119,-3.629752 -2.20119,-6.30039 0,-3.026172 0.88639,-5.4653 2.65915,-7.317383 1.5758,-1.645377 3.55813,-2.468066 5.97402,-2.468066 1.54579,0 2.78444,0.342337 3.71601,1.027012 0.94178,0.684675 1.41268,1.483463 1.41268,2.396363 0,0.657288 -0.22521,1.195898 -0.67563,1.615833 -0.45043,0.419934 -1.01345,0.629901 -1.68909,0.629901 -0.59373,0 -1.09022,-0.18258 -1.48946,-0.54774 -0.39925,-0.36516 -0.59887,-0.821611 -0.59887,-1.36935 -0.0468,-1.034741 -0.58442,-2.483005 -1.31907,-2.481132 -0.73466,0.0019 -1.34465,0.371441 -1.85236,1.569249 -0.50773,1.197808 -0.92387,3.377572 -0.89987,5.866309 z m 2.29437,-0.06201 c -0.49352,0 -1.11856,0.338997 -1.59849,1.016992 -0.47991,0.677995 -0.71988,1.649512 -0.71988,2.914551 0,1.44694 0.25595,2.587956 0.76788,3.423047 0.35995,0.595313 0.95169,0.892969 1.45178,0.892969 0.50668,0 1.05542,-0.322461 1.46863,-0.967383 0.41321,-0.65319 0.61981,-1.752865 0.61981,-3.299024 0,-1.496549 -0.1904,-2.534212 -0.5712,-3.112988 -0.3808,-0.578776 -0.92502,-0.868164 -1.41853,-0.868164 z"
         id="path847"
         sodipodi:nodetypes="ssssscscscscssssczzcssscscssss" />
    </g>
  </g>
  <g
     style="display:none"
     inkscape:label="w5"
     id="layer6"
     inkscape:groupmode="layer">
    <g
       transform="translate(-95.142829,-16.319704)"
       id="w5">
      <rect
         style="fill:none"
         id="rect1539-7-0-9"
         width="13.517298"
         height="18.070248"
         x="95.14283"
         y="16.319704" />
      <path
         d="m 97.122421,16.319712 c 0.341626,0.142481 1.426684,0.402226 1.426684,0.402226 l 5.705935,-0.01116 c 0.61921,-0.0012 1.28311,0.03888 2.15965,-0.21743 0.35455,-0.107487 0.56137,-0.16123 0.62047,-0.16123 0.13788,0 0.20682,0.08268 0.20682,0.248047 0,0.545703 -0.43897,1.274277 -0.7682,1.74873 -0.50228,0.852429 -1.16215,1.494592 -1.97959,1.92649 -0.81745,0.431898 -1.85156,0.31376 -3.10235,0.31376 -0.94548,0 -3.205757,-0.0069 -3.205757,-0.0069 l -0.325008,2.814389 c 0.738654,-0.28112 1.432988,-0.487826 2.083003,-0.620117 0.659862,-0.14056 1.275412,-0.21084 1.846632,-0.21084 1.89096,0 3.50615,0.525032 4.84557,1.575097 1.34928,1.041797 2.02392,2.434994 2.02392,4.17959 0,1.794206 -0.69434,3.257683 -2.08301,4.39043 -1.37882,1.132747 -3.20083,1.699121 -5.46604,1.699121 -1.802313,0 -3.250075,-0.396875 -4.343283,-1.190625 -1.083358,-0.79375 -1.625038,-1.752865 -1.625038,-2.877344 0,-0.735872 0.211358,-1.13063 0.709107,-1.761133 0.497749,-0.630503 1.108181,-0.924594 2.035961,-0.924594 0.859039,0 1.320363,0.348596 1.521025,0.571013 0.254018,0.281554 0.540359,0.894346 0.391646,1.930798 -0.148713,1.036452 0.03691,1.932819 0.415762,2.374996 0.37885,0.442177 0.8006,0.639609 1.27596,0.625433 0.45853,-0.01367 1.09646,-0.367936 1.5356,-1.103809 0.43913,-0.744141 0.6587,-2.013314 0.6587,-3.807519 0,-1.513086 -0.21281,-2.616895 -0.63843,-3.311426 -0.41887,-0.694531 -0.961,-0.967849 -1.6113,-1.041797 -0.5876,-0.06682 -1.556798,0.0939 -2.068931,0.234464 -0.512134,0.14056 -0.919374,0.303787 -1.236739,0.523942 -0.317365,0.220155 -0.67644,0.772152 -0.748689,0.91898 -0.159168,0.32347 -1.283043,0.174378 -1.283043,0.174378 0.452137,-3.497935 0.755613,-6.060141 1.022963,-9.405968 z"
         id="path845"
         sodipodi:nodetypes="ccscsscsscccscscscszsszzscscsszsccc" />
    </g>
  </g>
  <g
     style="display:none"
     inkscape:label="w2"
     id="layer3"
     inkscape:groupmode="layer">
    <g
       transform="translate(-42.719916,-16.169806)"
       id="w2">
      <rect
         y="16.319704"
         x="42.860897"
         height="18.070248"
         width="13.857023"
         id="rect1539-7-0"
         style="fill:none" />
      <path
         d="m 46.741999,30.214712 6.168331,3.46e-4 c 0.728613,4.1e-5 1.496287,-0.209394 1.735388,-0.383686 0.245932,-0.174292 0.92355,-0.551249 1.094337,-1.130872 h 0.977994 l -0.02111,5.206912 -13.836044,0.02362 v -1.066601 c 0.156173,-0.967383 -0.02462,-2.234784 2.102701,-4.227427 1.881106,-1.769401 4.651873,-3.871894 5.328113,-4.701079 0.846745,-1.027768 1.174855,-1.873936 1.174855,-3.089365 0,-1.050065 -0.23894,-1.899684 -0.564281,-2.385301 -0.32534,-0.485617 -0.697105,-0.71211 -1.040684,-0.708788 -0.427676,0.0041 -0.829188,0.03998 -1.14864,0.545772 -0.319453,0.505795 -0.374669,1.114384 -0.374618,1.585572 9.4e-5,0.849495 0.281753,1.303612 0.350103,2.240186 0,0.570508 -0.179216,1.041797 -0.537647,1.413867 -0.350804,0.363802 -1.424274,0.545703 -2.113684,0.545703 -0.718957,0 -1.314805,-0.252181 -1.787543,-0.756543 -0.472739,-0.51263 -0.709109,-1.231966 -0.709109,-2.158007 0,-1.289844 0.502285,-2.368848 1.506855,-3.237012 1.23109,-1.066601 2.905372,-1.599902 5.022846,-1.599902 1.890954,0 3.417507,0.44235 4.579655,1.32705 1.162149,0.884701 1.743223,1.976107 1.743223,3.274219 0,0.694531 -0.142806,1.331185 -0.428419,1.909961 -0.3841,0.785482 -0.896233,1.484147 -1.5364,2.095996 -0.640167,0.611849 -1.861531,1.323351 -3.424362,2.413732 -1.501544,0.969957 -3.437291,2.313714 -4.261863,2.861647 z"
         id="path839"
         sodipodi:nodetypes="csccccccccszszsccscscssscscc" />
    </g>
  </g>
  <g
     style="display:none"
     inkscape:label="w1"
     id="layer2"
     inkscape:groupmode="layer">
    <g
       transform="translate(-26.459683,-16.169806)"
       id="w1">
      <rect
         style="fill:none"
         id="rect1539-7"
         width="12.094104"
         height="18.070248"
         x="26.600664"
         y="16.319704" />
      <path
         d="m 27.316572,18.366099 c 1.210134,-0.08268 1.870363,-0.248047 2.435684,-0.496094 0.565321,-0.248047 1.458177,-0.620117 2.20752,-1.116211 h 3.509661 V 30.87593 c 0,0.297656 0.09849,0.529166 0.295462,0.694531 0.196974,0.157097 0.48214,0.153082 0.812518,0.235645 h 2.117475 v 2.211751 H 26.600665 v -2.211751 h 1.678502 c 0.551529,0 0.940553,-0.09922 1.167073,-0.297657 0.23637,-0.206705 0.354554,-0.541568 0.354554,-1.004589 v -9.144661 c 0,-0.264583 -0.09848,-0.467155 -0.295462,-0.607715 -0.187125,-0.14056 -0.419006,-0.21084 -0.720892,-0.21084 h -1.467868 z"
         style="font-style:normal;font-variant:normal;font-weight:bold;font-stretch:normal;font-family:'Century Schoolbook';-inkscape-font-specification:'Century Schoolbook Bold';stroke-width:0.288766"
         id="path837"
         sodipodi:nodetypes="csccscsccccscsscscc" />
    </g>
  </g>
  <g
     style="display:none"
     inkscape:label="w3"
     id="layer4"
     inkscape:groupmode="layer">
    <g
       transform="translate(-60.513029,-16.319704)"
       id="w3">
      <rect
         style="fill:none"
         id="rect1539-7-0-5"
         width="13.622602"
         height="18.070248"
         x="60.513103"
         y="16.319704" />
      <path
         d="m 69.260393,24.703697 c 1.615189,0.363802 2.831507,0.95498 3.648951,1.773535 0.817443,0.818555 1.226165,1.794206 1.226165,2.926953 0,1.488281 -0.635243,2.691309 -1.905727,3.609082 -1.270484,0.917773 -3.048179,1.37666 -5.333081,1.37666 -2.028836,0 -3.599708,-0.396875 -4.712613,-1.190625 -1.112904,-0.802018 -1.707203,-1.823551 -1.669357,-3.063379 0.0398,-1.303652 0.465289,-1.790471 1.037714,-2.412603 0.437304,-0.441283 1.113706,-0.761852 1.822814,-0.761852 0.640166,0 1.818516,0.147223 2.026149,1.02633 0.207634,0.879107 -0.05272,1.48682 -0.03795,2.367907 0.01576,0.940271 0.133679,1.431407 0.393904,1.97646 0.260225,0.545052 0.670976,0.861905 1.021219,0.86452 0.602729,0.0045 1.087875,-0.323978 1.603471,-0.952364 0.523652,-0.628385 0.785479,-1.604036 0.785479,-2.926953 0,-1.30638 -0.241686,-2.273763 -0.725058,-2.902148 -0.475314,-0.628385 -1.250943,-0.943981 -1.885557,-0.942578 -0.634614,0.0014 -2.127206,-0.208199 -2.441805,-0.358513 -0.125996,-0.0602 -0.210522,-0.324406 -0.04922,-0.530912 0.161303,-0.206506 0.896674,-0.350991 2.343293,-0.363208 0.886385,0 1.386705,-0.256315 1.808063,-0.768945 0.413096,-0.504362 0.619645,-1.347721 0.619645,-2.530078 0,-1.182357 -0.291665,-2.004436 -0.694002,-2.567285 -0.336043,-0.470108 -0.6166,-0.73128 -1.047649,-0.731825 -0.431049,-5.45e-4 -0.796595,0.150064 -1.161363,0.736834 -0.255947,0.41172 -0.375414,0.925377 -0.35703,1.503624 0.01839,0.578247 0.317469,1.629774 0.05012,2.21097 -0.267345,0.581196 -1.131828,0.735153 -1.780173,0.649547 -0.596494,-0.07876 -1.274473,-0.348134 -1.69498,-0.762355 -0.420508,-0.414221 -0.854115,-1.10979 -0.854115,-1.746444 0,-0.909505 0.398873,-1.72806 1.19662,-2.455664 1.024266,-0.950846 2.521271,-1.426269 4.491015,-1.426269 1.319729,0 2.457256,0.194303 3.412582,0.58291 0.965174,0.380339 1.69398,0.901237 2.186415,1.562695 0.502285,0.65319 0.753428,1.372526 0.753428,2.158008 0,0.851627 -0.315159,1.616438 -0.945478,2.294433 -0.62047,0.677995 -1.664433,1.269174 -3.131892,1.773536 z"
         id="path841"
         sodipodi:nodetypes="ssssscscszszscsccszccsszszzszscsccscss" />
    </g>
  </g>
  <g
     style="display:none"
     inkscape:label="w4"
     id="layer5"
     inkscape:groupmode="layer">
    <g
       transform="translate(-77.267193,-16.319704)"
       id="w4">
      <rect
         style="fill:none"
         id="rect1539-7-0-3"
         width="14.418734"
         height="18.070248"
         x="77.267319"
         y="16.319704" />
      <path
         d="m 85.466462,16.394126 h 3.26485 l -2.1e-4,10.192911 h 1.334499 c 0.801967,0 1.322542,-0.81265 1.322542,-0.81265 l 0.297575,0.0024 2.11e-4,3.962298 h -2.954617 v 1.050065 c 0,0.338998 0.113255,0.595313 0.339781,0.768946 0.236369,0.165364 0.695553,0.248047 1.093209,0.248047 h 0.782973 v 2.211751 h -9.203628 v -2.211751 h 0.876535 c 0.590923,0 0.989797,-0.09509 1.19662,-0.285254 0.275764,-0.239779 0.413645,-0.696026 0.413645,-1.103809 v -0.677995 h -6.963043 l -2.11e-4,-3.462069 z m -1.236015,4.357357 -4.855628,5.835554 h 4.855418 z"
         id="path843"
         sodipodi:nodetypes="ccccccccscsccccscscccccccc" />
    </g>
  </g>
</svg>
