<?xml version="1.0" encoding="UTF-8" standalone="no"?>
<svg
   xmlns:dc="http://purl.org/dc/elements/1.1/"
   xmlns:cc="http://creativecommons.org/ns#"
   xmlns:rdf="http://www.w3.org/1999/02/22-rdf-syntax-ns#"
   xmlns:svg="http://www.w3.org/2000/svg"
   xmlns="http://www.w3.org/2000/svg"
   xmlns:sodipodi="http://sodipodi.sourceforge.net/DTD/sodipodi-0.dtd"
   xmlns:inkscape="http://www.inkscape.org/namespaces/inkscape"
   sodipodi:docname="digit-n1.svg"
   inkscape:version="1.0 (4035a4fb49, 2020-05-01)"
   id="base"
   version="1.1"
   viewBox="0 0 1.8610873 4.7810206">
  <defs
     id="defs86" />
  <sodipodi:namedview
     inkscape:window-maximized="0"
     inkscape:window-y="166"
     inkscape:window-x="294"
     inkscape:window-height="956"
     inkscape:window-width="1496"
     showgrid="false"
     inkscape:document-rotation="0"
     inkscape:current-layer="layer1"
     inkscape:document-units="mm"
     inkscape:cy="1.9393854"
     inkscape:cx="0.5570843"
     inkscape:zoom="128"
     inkscape:pageshadow="2"
     inkscape:pageopacity="0.0"
     borderopacity="1.0"
     bordercolor="#666666"
     pagecolor="#ffffff"
     id="namedview841" />
  <metadata
     id="metadata89">
    <rdf:RDF>
      <cc:Work
         rdf:about="">
        <dc:format>image/svg+xml</dc:format>
        <dc:type
           rdf:resource="http://purl.org/dc/dcmitype/StillImage" />
        <dc:title></dc:title>
      </cc:Work>
    </rdf:RDF>
  </metadata>
  <g
     id="layer1"
     inkscape:groupmode="layer"
     inkscape:label="レイヤー 1">
    <g
       style="display:inline"
       transform="matrix(0.26458333,0,0,0.26143157,-7.0380925,-9.799709)"
       id="n1">
      <path
         style="stroke-width:1.02065"
         sodipodi:nodetypes="cccszcccccccscsscscc"
         id="path837-1"
         d="m 27.017031,39.308961 c 1.229669,0.0072 2.309433,-0.702788 2.700453,-1.679594 h 2.041192 v 14.296256 c 0,0.386979 -0.0036,0.861239 0.171839,1.075555 0.175428,0.214317 0.339464,0.314971 0.634956,0.3087 l 0.665336,-0.0016 c 0,0 0.403769,-0.01255 0.403769,0.448848 v 1.856803 h -7.033911 v -1.858038 c 0,-0.461399 0.397322,-0.448116 0.397322,-0.448116 l 0.578882,0.0021 c 0.320763,0.0011 0.547019,-0.103361 0.678761,-0.31008 0.137471,-0.215332 0.206206,-0.56417 0.206206,-1.046515 v -9.526308 c 0,-0.275625 -0.05728,-0.486651 -0.171838,-0.633077 -0.108831,-0.146426 -0.243692,-0.219639 -0.419266,-0.219639 h -0.853701 z" />
    </g>
  </g>
</svg>
