<?xml version="1.0" encoding="UTF-8" standalone="no"?>
<svg
   xmlns:dc="http://purl.org/dc/elements/1.1/"
   xmlns:cc="http://creativecommons.org/ns#"
   xmlns:rdf="http://www.w3.org/1999/02/22-rdf-syntax-ns#"
   xmlns:svg="http://www.w3.org/2000/svg"
   xmlns="http://www.w3.org/2000/svg"
   xmlns:sodipodi="http://sodipodi.sourceforge.net/DTD/sodipodi-0.dtd"
   xmlns:inkscape="http://www.inkscape.org/namespaces/inkscape"
   viewBox="0 0 3.7679992 4.7915716"
   version="1.1"
   id="base"
   inkscape:version="1.0 (4035a4fb49, 2020-05-01)"
   sodipodi:docname="digit-w6.svg">
  <defs
     id="defs542" />
  <sodipodi:namedview
     id="namedview4269"
     pagecolor="#ffffff"
     bordercolor="#666666"
     borderopacity="1.0"
     inkscape:pageopacity="0.0"
     inkscape:pageshadow="2"
     inkscape:zoom="256"
     inkscape:cx="1.3290617"
     inkscape:cy="1.9823415"
     inkscape:document-units="mm"
     inkscape:current-layer="layer1"
     inkscape:document-rotation="0"
     showgrid="false"
     inkscape:window-width="1638"
     inkscape:window-height="1198"
     inkscape:window-x="98"
     inkscape:window-y="98"
     inkscape:window-maximized="0" />
  <metadata
     id="metadata545">
    <rdf:RDF>
      <cc:Work
         rdf:about="">
        <dc:format>image/svg+xml</dc:format>
        <dc:type
           rdf:resource="http://purl.org/dc/dcmitype/StillImage" />
        <dc:title></dc:title>
      </cc:Work>
    </rdf:RDF>
  </metadata>
  <g
     inkscape:label="レイヤー 1"
     inkscape:groupmode="layer"
     id="layer1"
     transform="translate(-77.491,-42.205404)">
    <g
       id="w6"
       transform="matrix(0.26458333,0,0,0.26458333,47.740697,37.884199)">
      <path
         sodipodi:nodetypes="zssscscscscssssszzczsscscssss"
         id="path847"
         d="m 118.88596,23.73159 c 0.68997,-0.292882 1.25208,-0.406915 2.08118,-0.392151 1.15843,0.02063 2.90933,0.417545 4.03208,1.252636 1.12275,0.835091 1.68413,2.091862 1.68413,3.770313 0,1.810742 -0.63524,3.270084 -1.90572,4.378027 -1.27049,1.099675 -2.93,1.649512 -4.97853,1.649512 -2.16672,0 -3.88533,-0.657324 -5.15581,-1.971973 -1.46746,-1.529622 -2.20119,-3.629752 -2.20119,-6.30039 0,-3.026172 0.88639,-5.4653 2.65915,-7.317383 1.5758,-1.645377 3.55813,-2.468066 5.97402,-2.468066 1.54579,0 2.78444,0.342337 3.71601,1.027012 0.94178,0.684675 1.41268,1.483463 1.41268,2.396363 0,0.657288 -0.22521,1.195898 -0.67563,1.615833 -0.45043,0.419934 -1.01345,0.629901 -1.68909,0.629901 -0.59373,0 -1.10419,-0.167871 -1.48946,-0.54774 -0.32543,-0.320869 -0.56613,-0.615213 -0.59887,-1.36935 -0.0404,-0.931624 -0.5106,-2.438714 -1.31907,-2.481132 -0.80847,-0.04242 -1.34465,0.371441 -1.85236,1.569249 -0.50773,1.197808 -0.92387,2.86084 -0.89987,5.349577 0,0 0.51638,-0.497356 1.20635,-0.790238 z m 1.08801,1.24496 c -0.49352,0 -1.11856,0.338997 -1.59849,1.016992 -0.47991,0.677995 -0.71988,1.649512 -0.71988,2.914551 0,1.44694 0.25595,2.587956 0.76788,3.423047 0.35995,0.595313 0.95169,0.892969 1.45178,0.892969 0.50668,0 1.05542,-0.322461 1.46863,-0.967383 0.41321,-0.65319 0.61981,-1.752865 0.61981,-3.299024 0,-1.496549 -0.1904,-2.534212 -0.5712,-3.112988 -0.3808,-0.578776 -0.92502,-0.868164 -1.41853,-0.868164 z" />
    </g>
  </g>
</svg>
