<?xml version="1.0" encoding="UTF-8" standalone="no"?>
<svg
   xmlns:dc="http://purl.org/dc/elements/1.1/"
   xmlns:cc="http://creativecommons.org/ns#"
   xmlns:rdf="http://www.w3.org/1999/02/22-rdf-syntax-ns#"
   xmlns:svg="http://www.w3.org/2000/svg"
   xmlns="http://www.w3.org/2000/svg"
   xmlns:sodipodi="http://sodipodi.sourceforge.net/DTD/sodipodi-0.dtd"
   xmlns:inkscape="http://www.inkscape.org/namespaces/inkscape"
   viewBox="0 0 2.1914384 4.7810802"
   version="1.1"
   id="base"
   inkscape:version="1.0 (4035a4fb49, 2020-05-01)"
   sodipodi:docname="digit-n6.svg">
  <defs
     id="defs241" />
  <sodipodi:namedview
     id="namedview841"
     pagecolor="#ffffff"
     bordercolor="#666666"
     borderopacity="1.0"
     inkscape:pageopacity="0.0"
     inkscape:pageshadow="2"
     inkscape:zoom="256"
     inkscape:cx="0.71967785"
     inkscape:cy="1.8677541"
     inkscape:document-units="mm"
     inkscape:current-layer="layer1"
     inkscape:document-rotation="0"
     showgrid="false"
     inkscape:window-width="1638"
     inkscape:window-height="1198"
     inkscape:window-x="98"
     inkscape:window-y="98"
     inkscape:window-maximized="0" />
  <metadata
     id="metadata244">
    <rdf:RDF>
      <cc:Work
         rdf:about="">
        <dc:format>image/svg+xml</dc:format>
        <dc:type
           rdf:resource="http://purl.org/dc/dcmitype/StillImage" />
        <dc:title></dc:title>
      </cc:Work>
    </rdf:RDF>
  </metadata>
  <g
     inkscape:label="レイヤー 1"
     inkscape:groupmode="layer"
     id="layer1"
     transform="translate(-1.1721382,-2.9011266)">
    <g
       id="n6"
       transform="matrix(0.26458333,0,0,0.26458333,-19.075207,-7.017142)">
      <path
         d="m 80.153526,45.141753 c 0.353266,-0.434883 0.86389,-0.60933 1.329972,-0.635647 0.672767,-0.03799 1.692044,0.417545 2.345024,1.252636 0.652987,0.835091 0.97948,2.091862 0.97948,3.770313 0,1.810742 -0.369452,3.270084 -1.108355,4.378027 -0.738903,1.099675 -1.704064,1.649512 -2.895474,1.649512 -1.260147,0 -2.259676,-0.657324 -2.998579,-1.971973 -0.853462,-1.529622 -1.280194,-3.629752 -1.280194,-6.30039 0,-3.026172 0.784866,-6.310226 1.487486,-7.494548 0.920075,-1.550861 1.787757,-2.278155 3.225634,-2.290901 0.976446,-0.0087 1.761557,0.578175 2.153108,1.038824 0.594822,0.699791 0.837647,1.256435 0.970521,2.184099 0.0932,0.650647 -0.0066,1.40742 -0.25931,1.832989 -0.328779,0.553569 -0.890548,0.761254 -1.28304,0.78024 -0.345308,0.01671 -0.758613,-0.08647 -1.014075,-0.313183 -0.209906,-0.186282 -0.353198,-0.493633 -0.353198,-0.754201 v -1.004937 c 0,0 0.0095,-1.084111 0,-1.67462 -0.0095,-0.590508 -0.402158,-0.816012 -0.622898,-0.806512 -0.22074,0.0095 -0.686084,0.197033 -0.687914,0.825108 l 0.0076,2.721734 z m 0.634233,1.001464 c -0.313664,0.0055 -0.645207,0.237957 -0.634376,1.00518 l 0.04198,2.97361 0.05916,3.3758 c 0.01073,0.612459 0.303091,0.892969 0.593942,0.892969 0.294681,0 0.604057,-0.230092 0.604058,-0.896512 l 3e-6,-3.369895 v -2.99487 c 0,-0.797938 -0.351103,-0.991782 -0.664767,-0.986282 z"
         id="path847-3"
         sodipodi:nodetypes="cssscscsssssssssczzccczscssscsz" />
    </g>
  </g>
</svg>
