<?xml version="1.0" encoding="UTF-8" standalone="no"?>
<svg
   xmlns:dc="http://purl.org/dc/elements/1.1/"
   xmlns:cc="http://creativecommons.org/ns#"
   xmlns:rdf="http://www.w3.org/1999/02/22-rdf-syntax-ns#"
   xmlns:svg="http://www.w3.org/2000/svg"
   xmlns="http://www.w3.org/2000/svg"
   xmlns:sodipodi="http://sodipodi.sourceforge.net/DTD/sodipodi-0.dtd"
   xmlns:inkscape="http://www.inkscape.org/namespaces/inkscape"
   sodipodi:docname="digit-n8.svg"
   inkscape:version="1.0 (4035a4fb49, 2020-05-01)"
   id="base"
   version="1.1"
   viewBox="0 0 2.1914454 4.7810802">
  <defs
     id="defs299" />
  <sodipodi:namedview
     inkscape:window-maximized="0"
     inkscape:window-y="118"
     inkscape:window-x="9"
     inkscape:window-height="1198"
     inkscape:window-width="1638"
     showgrid="false"
     inkscape:document-rotation="0"
     inkscape:current-layer="layer1"
     inkscape:document-units="mm"
     inkscape:cy="563.32083"
     inkscape:cx="401.28417"
     inkscape:zoom="0.35"
     inkscape:pageshadow="2"
     inkscape:pageopacity="0.0"
     borderopacity="1.0"
     bordercolor="#666666"
     pagecolor="#ffffff"
     id="base" />
  <metadata
     id="metadata302">
    <rdf:RDF>
      <cc:Work
         rdf:about="">
        <dc:format>image/svg+xml</dc:format>
        <dc:type
           rdf:resource="http://purl.org/dc/dcmitype/StillImage" />
        <dc:title></dc:title>
      </cc:Work>
    </rdf:RDF>
  </metadata>
  <g
     transform="translate(0.3397705,0.87863537)"
     id="layer1"
     inkscape:groupmode="layer"
     inkscape:label="レイヤー 1">
    <g
       transform="matrix(0.26458333,0,0,0.26458333,-25.949775,-10.796904)"
       id="n8">
      <path
         sodipodi:nodetypes="ccssscsccsscssssccscszscsccsszscssc"
         id="path851-8"
         d="m 102.55071,44.999837 c 1.01957,0.628385 1.55759,1.27567 1.94136,2.036347 0.3895,0.752409 0.58425,1.703255 0.58425,2.852539 0,1.678451 -0.38091,3.042708 -1.14272,4.092773 -0.76182,1.050065 -1.79572,1.575098 -3.10168,1.575098 -1.26588,0 -2.256811,-0.42168 -2.972804,-1.265039 -0.710265,-0.843359 -1.065397,-1.922363 -1.065397,-3.237012 0,-0.975651 0.197611,-1.798339 0.592841,-2.468066 0.400951,-0.669727 1.002389,-1.390834 1.938931,-2.045205 -0.864924,-0.603581 -1.251577,-0.976833 -1.57807,-1.663096 -0.326493,-0.686263 -0.489736,-1.508951 -0.489736,-2.468066 0,-1.347721 0.349403,-2.501139 1.048209,-3.460254 0.704535,-0.967383 1.589507,-1.451074 2.654906,-1.451074 1.05394,0 1.90453,0.367936 2.55179,1.103808 0.64726,0.735873 0.97089,1.591634 0.97089,2.567285 0,0.719336 -0.15179,1.380794 -0.45537,1.984375 -0.30358,0.603581 -0.71968,1.132156 -1.4774,1.845587 z m -1.2874,-0.559877 c 0.26999,-0.259529 0.32837,-0.78576 0.32034,-1.240151 l -0.0301,-1.703926 -0.0351,-2.200021 c -0.01,-0.613077 -0.29581,-0.699555 -0.52494,-0.693272 -0.22913,0.0063 -0.51452,0.187618 -0.52608,0.740091 l -0.0406,1.941262 0.0217,1.66782 c 0.0105,0.803905 0.19591,1.122033 0.81478,1.488197 z m -0.7732,2.820647 c 0,0 -0.4444,0.820675 -0.44333,1.423317 l 0.004,2.243643 0.0773,2.557836 c 0.0195,0.6444 0.23188,0.904996 0.66504,0.930175 0.43316,0.02518 0.5791,-0.243739 0.57591,-0.90419 l -0.0106,-2.21116 -0.0369,-2.641108 c -0.0139,-0.991712 -0.83142,-1.398513 -0.83142,-1.398513 z" />
    </g>
  </g>
</svg>
