<?xml version="1.0" encoding="UTF-8" standalone="no"?>
<svg
   xmlns:dc="http://purl.org/dc/elements/1.1/"
   xmlns:cc="http://creativecommons.org/ns#"
   xmlns:rdf="http://www.w3.org/1999/02/22-rdf-syntax-ns#"
   xmlns:svg="http://www.w3.org/2000/svg"
   xmlns="http://www.w3.org/2000/svg"
   xmlns:sodipodi="http://sodipodi.sourceforge.net/DTD/sodipodi-0.dtd"
   xmlns:inkscape="http://www.inkscape.org/namespaces/inkscape"
   sodipodi:docname="digit-w8.svg"
   inkscape:version="1.0 (4035a4fb49, 2020-05-01)"
   id="base"
   version="1.1"
   viewBox="0 0 3.7680287 4.7810864">
  <defs
     id="defs600" />
  <sodipodi:namedview
     inkscape:window-maximized="0"
     inkscape:window-y="147"
     inkscape:window-x="147"
     inkscape:window-height="1198"
     inkscape:window-width="1638"
     showgrid="false"
     inkscape:document-rotation="0"
     inkscape:current-layer="layer1"
     inkscape:document-units="mm"
     inkscape:cy="1.8186985"
     inkscape:cx="6.4205461"
     inkscape:zoom="22.4"
     inkscape:pageshadow="2"
     inkscape:pageopacity="0.0"
     borderopacity="1.0"
     bordercolor="#666666"
     pagecolor="#ffffff"
     id="base" />
  <metadata
     id="metadata603">
    <rdf:RDF>
      <cc:Work
         rdf:about="">
        <dc:format>image/svg+xml</dc:format>
        <dc:type
           rdf:resource="http://purl.org/dc/dcmitype/StillImage" />
        <dc:title></dc:title>
      </cc:Work>
    </rdf:RDF>
  </metadata>
  <g
     transform="translate(-61.615986,-33.139219)"
     id="layer1"
     inkscape:groupmode="layer"
     inkscape:label="レイヤー 1">
    <g
       transform="matrix(0.26458333,0,0,0.26458333,22.645065,28.821297)"
       id="w8">
      <path
         d="m 157.19046,23.83317 c 1.75308,0.628385 2.67815,1.27567 3.33801,2.036347 0.66972,0.752409 1.00457,1.703255 1.00457,2.852539 0,1.678451 -0.65494,3.042708 -1.96481,4.092773 -1.30989,1.050065 -3.08759,1.575098 -5.33309,1.575098 -2.17657,0 -3.88039,-0.42168 -5.11148,-1.265039 -1.22124,-0.843359 -1.83186,-1.922363 -1.83186,-3.237012 0,-0.975651 0.33977,-1.798339 1.01934,-2.468066 0.6894,-0.669727 1.72352,-1.449893 3.4963,-1.962523 -1.48716,-0.603581 -2.31445,-1.059515 -2.87583,-1.745778 -0.56138,-0.686263 -0.84206,-1.508951 -0.84206,-2.468066 0,-1.347721 0.60077,-2.501139 1.8023,-3.460254 1.21139,-0.967383 2.73303,-1.451074 4.56489,-1.451074 1.81216,0 3.27469,0.367936 4.3876,1.103808 1.11291,0.735873 1.66936,1.591634 1.66936,2.567285 0,0.719336 -0.26099,1.380794 -0.78298,1.984375 -0.52197,0.603581 -1.23741,1.132156 -2.54026,1.845587 z m -1.67076,-0.559877 c 0.55039,-0.409868 0.88947,-0.810286 1.09653,-1.248503 0.21446,-0.446484 0.32168,-0.992187 0.32168,-1.637109 0,-0.884701 -0.24034,-1.595768 -0.721,-2.133203 -0.48068,-0.545703 -1.05964,-0.818555 -1.7039,-0.818555 -0.6021,0 -1.21153,0.243913 -1.65787,0.731739 -0.43913,0.479557 -0.65868,1.087271 -0.65868,1.823144 0,0.694531 0.20877,1.289844 0.6263,1.785938 0.42473,0.487825 1.44818,0.99455 2.69694,1.496549 z m -1.99413,2.844271 c -0.47854,0.338997 -1.23526,0.79375 -1.5691,1.364258 -0.33385,0.562239 -0.50078,1.302246 -0.50078,2.220019 0,1.116211 0.27449,1.988509 0.82351,2.616895 0.54899,0.620117 1.23604,0.917267 1.88939,0.930175 0.65336,0.01291 1.54183,-0.293522 2.06459,-0.880566 0.52938,-0.595313 0.79407,-1.35599 0.79407,-2.282031 0,-0.892969 -0.25808,-1.604036 -0.77423,-2.133203 -0.51613,-0.529167 -1.56652,-1.23551 -2.72745,-1.835547 z"
         id="path851"
         sodipodi:nodetypes="ccssscsccsscsssscccscscsccccsczcssc" />
    </g>
  </g>
</svg>
