<?xml version="1.0" encoding="UTF-8" standalone="no"?>
<svg
   xmlns:dc="http://purl.org/dc/elements/1.1/"
   xmlns:cc="http://creativecommons.org/ns#"
   xmlns:rdf="http://www.w3.org/1999/02/22-rdf-syntax-ns#"
   xmlns:svg="http://www.w3.org/2000/svg"
   xmlns="http://www.w3.org/2000/svg"
   xmlns:sodipodi="http://sodipodi.sourceforge.net/DTD/sodipodi-0.dtd"
   xmlns:inkscape="http://www.inkscape.org/namespaces/inkscape"
   viewBox="0 0 3.6663721 4.7810864"
   version="1.1"
   id="base"
   inkscape:version="1.0 (4035a4fb49, 2020-05-01)"
   sodipodi:docname="digit-w2.svg">
  <defs
     id="defs416" />
  <sodipodi:namedview
     id="namedview1988"
     pagecolor="#ffffff"
     bordercolor="#666666"
     borderopacity="1.0"
     inkscape:pageopacity="0.0"
     inkscape:pageshadow="2"
     inkscape:zoom="256"
     inkscape:cx="2.7050559"
     inkscape:cy="3.2596977"
     inkscape:document-units="mm"
     inkscape:current-layer="layer1"
     inkscape:document-rotation="0"
     showgrid="false"
     inkscape:window-width="1638"
     inkscape:window-height="1198"
     inkscape:window-x="173"
     inkscape:window-y="120"
     inkscape:window-maximized="0" />
  <metadata
     id="metadata419">
    <rdf:RDF>
      <cc:Work
         rdf:about="">
        <dc:format>image/svg+xml</dc:format>
        <dc:type
           rdf:resource="http://purl.org/dc/dcmitype/StillImage" />
        <dc:title></dc:title>
      </cc:Work>
    </rdf:RDF>
  </metadata>
  <g
     inkscape:label="レイヤー 1"
     inkscape:groupmode="layer"
     id="layer1"
     transform="translate(-66.202528,-70.180886)">
    <g
       id="w2"
       transform="matrix(0.26458333,0,0,0.26887827,54.86225,65.792819)">
      <path
         sodipodi:nodetypes="csscccccccszszsczzcscssscsccc"
         id="path839"
         d="m 46.741999,30.214712 6.168331,3.46e-4 c 2.312226,1.3e-4 2.936762,-1.061667 3.065945,-1.325694 0.09057,-0.185104 0.259292,-0.185554 0.259292,-0.185554 l 0.482482,-0.0033 -0.523079,5.206912 -13.334075,0.02362 v -1.066601 c 0.156173,-0.967383 -0.02462,-2.234784 2.102701,-4.227427 1.881106,-1.769401 4.651873,-3.871894 5.328113,-4.701079 0.846745,-1.027768 1.174855,-1.873936 1.174855,-3.089365 0,-1.050065 -0.31276,-1.972324 -0.564281,-2.385301 -0.251521,-0.412977 -0.578995,-0.71211 -1.040684,-0.708788 -0.427685,0.0031 -0.843952,0.08356 -1.14864,0.545772 -0.304688,0.462208 -0.374669,1.114384 -0.374618,1.585572 9.4e-5,0.849495 0.281753,1.303612 0.350103,2.240186 0,0.570508 -0.101792,0.973252 -0.537647,1.413867 -0.435855,0.440615 -1.402119,0.560231 -2.113684,0.545703 -0.711565,-0.01453 -1.314805,-0.252181 -1.787543,-0.756543 -0.472739,-0.51263 -0.709109,-1.231966 -0.709109,-2.158007 0,-1.289844 0.502285,-2.368848 1.506855,-3.237012 1.23109,-1.066601 2.905372,-1.599902 5.022846,-1.599902 1.890954,0 3.417507,0.44235 4.579655,1.32705 1.162149,0.884701 1.743223,1.976107 1.743223,3.274219 0,0.694531 -0.142806,1.331185 -0.428419,1.909961 -0.3841,0.785482 -0.896233,1.484147 -1.5364,2.095996 -0.640167,0.611849 -1.861531,1.323351 -3.424362,2.413732 -1.501544,0.969957 -3.437291,2.313714 -4.261863,2.861647 z" />
    </g>
  </g>
</svg>
