<?xml version="1.0" encoding="UTF-8" standalone="no"?>
<svg
   xmlns:dc="http://purl.org/dc/elements/1.1/"
   xmlns:cc="http://creativecommons.org/ns#"
   xmlns:rdf="http://www.w3.org/1999/02/22-rdf-syntax-ns#"
   xmlns:svg="http://www.w3.org/2000/svg"
   xmlns="http://www.w3.org/2000/svg"
   xmlns:sodipodi="http://sodipodi.sourceforge.net/DTD/sodipodi-0.dtd"
   xmlns:inkscape="http://www.inkscape.org/namespaces/inkscape"
   sodipodi:docname="digit-w9.svg"
   inkscape:version="1.0 (4035a4fb49, 2020-05-01)"
   id="base"
   version="1.1"
   viewBox="0 0 3.7679946 4.7810864">
  <defs
     id="defs629" />
  <sodipodi:namedview
     inkscape:window-maximized="0"
     inkscape:window-y="166"
     inkscape:window-x="171"
     inkscape:window-height="1198"
     inkscape:window-width="1638"
     showgrid="false"
     inkscape:document-rotation="0"
     inkscape:current-layer="layer1"
     inkscape:document-units="mm"
     inkscape:cy="271.89227"
     inkscape:cx="129.97776"
     inkscape:zoom="0.35"
     inkscape:pageshadow="2"
     inkscape:pageopacity="0.0"
     borderopacity="1.0"
     bordercolor="#666666"
     pagecolor="#ffffff"
     id="base" />
  <metadata
     id="metadata632">
    <rdf:RDF>
      <cc:Work
         rdf:about="">
        <dc:format>image/svg+xml</dc:format>
        <dc:type
           rdf:resource="http://purl.org/dc/dcmitype/StillImage" />
        <dc:title></dc:title>
      </cc:Work>
    </rdf:RDF>
  </metadata>
  <g
     transform="translate(-71.443384,-76.228505)"
     id="layer1"
     inkscape:groupmode="layer"
     inkscape:label="レイヤー 1">
    <g
       transform="matrix(0.26458333,0,0,0.26458333,27.903146,71.910583)"
       id="w9">
      <path
         d="m 173.5864,25.745493 -0.19863,0.161231 c -1.07595,0.942578 -2.01094,1.413867 -3.38975,1.413867 -1.30988,0 -2.46711,-0.3514 -3.47168,-1.054199 -1.30987,-0.909505 -1.96481,-2.195215 -1.96481,-3.857129 0,-1.207161 0.29053,-2.273763 0.87161,-3.199805 0.59092,-0.934309 1.40837,-1.645377 2.45233,-2.133203 1.05381,-0.496093 2.27505,-0.74414 3.66372,-0.74414 2.14702,0 3.83115,0.636654 5.05239,1.909961 1.46747,1.53789 2.20119,3.604947 2.20119,6.201171 0,3.067513 -0.8913,5.547982 -2.67392,7.441407 -1.58565,1.670182 -3.52584,2.505273 -5.8206,2.505273 -1.4576,0 -2.66407,-0.322461 -3.6194,-0.967383 -0.95533,-0.644922 -1.43299,-1.598384 -1.43299,-2.567913 0,-0.747345 0.2216,-1.358349 0.66479,-1.833014 0.4432,-0.484764 0.98979,-0.727147 1.63982,-0.727147 1.08758,0 1.47332,0.371543 1.75729,0.621104 0.28002,0.246098 0.53464,0.92878 0.47836,1.521563 -0.0562,0.592782 -0.0107,1.53346 0.20371,2.037586 0.21438,0.504126 0.67197,0.69598 1.02246,0.703316 0.35048,0.0073 0.96577,-0.22138 1.3764,-0.729375 0.41064,-0.507994 0.77057,-1.14574 0.94437,-2.237146 0.17724,-1.112989 0.22679,-2.564332 0.24334,-4.466025 z m -2.10348,-8.284765 c -0.52615,0 -1.17544,0.326595 -1.59189,0.979785 -0.40845,0.65319 -0.61267,1.785937 -0.61267,3.398242 0,1.397331 0.1842,2.389518 0.55261,2.976563 0.3764,0.578776 1.01304,0.868164 1.50162,0.868164 0.53243,0 1.17481,-0.3514 1.6293,-1.054199 0.46217,-0.711068 0.69326,-1.785938 0.69326,-3.22461 0,-1.455208 -0.25805,-2.517675 -0.77415,-3.187402 -0.38515,-0.504362 -0.95335,-0.756543 -1.39808,-0.756543 z"
         id="path853"
         sodipodi:nodetypes="ccscsccscscssscsszzzzscscscscscs" />
    </g>
  </g>
</svg>
