<?xml version="1.0" encoding="UTF-8" standalone="no"?>
<svg
   xmlns:dc="http://purl.org/dc/elements/1.1/"
   xmlns:cc="http://creativecommons.org/ns#"
   xmlns:rdf="http://www.w3.org/1999/02/22-rdf-syntax-ns#"
   xmlns:svg="http://www.w3.org/2000/svg"
   xmlns="http://www.w3.org/2000/svg"
   xmlns:sodipodi="http://sodipodi.sourceforge.net/DTD/sodipodi-0.dtd"
   xmlns:inkscape="http://www.inkscape.org/namespaces/inkscape"
   viewBox="0 0 3.9441002 8.6048687"
   version="1.1"
   id="base"
   inkscape:version="1.0 (4035a4fb49, 2020-05-01)"
   sodipodi:docname="digit-n9.svg">
  <defs
     id="defs328" />
  <sodipodi:namedview
     id="namedview2552"
     pagecolor="#ffffff"
     bordercolor="#666666"
     borderopacity="1.0"
     inkscape:pageopacity="0.0"
     inkscape:pageshadow="2"
     inkscape:zoom="256"
     inkscape:cx="1.2169811"
     inkscape:cy="5.5960547"
     inkscape:document-units="mm"
     inkscape:current-layer="layer1"
     inkscape:document-rotation="0"
     showgrid="false"
     inkscape:window-width="1638"
     inkscape:window-height="1198"
     inkscape:window-x="51"
     inkscape:window-y="118"
     inkscape:window-maximized="0" />
  <metadata
     id="metadata331">
    <rdf:RDF>
      <cc:Work
         rdf:about="">
        <dc:format>image/svg+xml</dc:format>
        <dc:type
           rdf:resource="http://purl.org/dc/dcmitype/StillImage" />
        <dc:title></dc:title>
      </cc:Work>
    </rdf:RDF>
  </metadata>
  <g
     inkscape:label="レイヤー 1"
     inkscape:groupmode="layer"
     id="layer1"
     transform="translate(-8.9123036,10.050733)">
    <g
       id="n9"
       transform="matrix(0.47619048,0,0,0.47619048,-41.962773,-27.901386)">
      <path
         d="m 111.36238,47.982896 c 0,0 -0.56099,0.504362 -1.3629,0.504362 -0.76181,0 -1.43484,-0.3514 -2.01909,-1.054199 -0.76182,-0.909505 -1.14273,-2.195215 -1.14273,-3.857129 0,-1.207161 0.16898,-2.273763 0.50693,-3.199805 0.34367,-0.934309 0.81909,-1.645377 1.42625,-2.133203 0.61289,-0.496093 1.32316,-0.74414 2.1308,-0.74414 1.24869,0 2.22817,0.636654 2.93843,1.909961 0.85347,1.53789 1.2802,3.604947 1.2802,6.201171 0,3.067513 -0.51838,5.547982 -1.55514,7.441407 -0.9222,1.670182 -2.0506,2.505273 -3.38521,2.505273 -0.84773,0 -1.54941,-0.322461 -2.10502,-0.967383 -0.55561,-0.644922 -0.83342,-1.598384 -0.83342,-2.567913 0,-0.747345 0.12888,-1.358349 0.38664,-1.833014 0.25776,-0.484764 0.71317,-0.731529 1.08733,-0.785612 0.45403,-0.06563 0.81441,0.02307 1.05544,0.2628 0.17934,0.178371 0.35464,0.385868 0.36173,0.927719 l 0.0245,1.873433 0.01,1.174766 c 0.005,0.560765 0.37495,0.69598 0.57879,0.703316 0.20384,0.0073 0.5951,-0.14621 0.61676,-0.687614 0.0217,-0.541404 -2.9e-4,-2.295611 -2.9e-4,-2.295611 z m -0.49929,-9.355501 c -0.306,0 -0.70557,0.132731 -0.70557,0.979785 v 3.398242 2.976563 c 0,0.745822 0.33399,0.868164 0.61815,0.868164 0.30965,0 0.58671,-0.217624 0.58671,-0.887156 V 42.57134 39.383938 c 0,-0.551863 -0.24086,-0.756543 -0.49929,-0.756543 z"
         id="path853-4"
         sodipodi:nodetypes="cscsccscscssscssscszzcccscscscsc" />
    </g>
  </g>
</svg>
