<?xml version="1.0" encoding="UTF-8" standalone="no"?>
<svg
   xmlns:dc="http://purl.org/dc/elements/1.1/"
   xmlns:cc="http://creativecommons.org/ns#"
   xmlns:rdf="http://www.w3.org/1999/02/22-rdf-syntax-ns#"
   xmlns:svg="http://www.w3.org/2000/svg"
   xmlns="http://www.w3.org/2000/svg"
   xmlns:sodipodi="http://sodipodi.sourceforge.net/DTD/sodipodi-0.dtd"
   xmlns:inkscape="http://www.inkscape.org/namespaces/inkscape"
   sodipodi:docname="digit-w1.svg"
   inkscape:version="1.0 (4035a4fb49, 2020-05-01)"
   id="base"
   version="1.1"
   viewBox="0 0 5.7591561 8.6048803">
  <defs
     id="defs368" />
  <sodipodi:namedview
     inkscape:window-maximized="0"
     inkscape:window-y="100"
     inkscape:window-x="236"
     inkscape:window-height="1198"
     inkscape:window-width="1638"
     showgrid="false"
     inkscape:document-rotation="0"
     inkscape:current-layer="layer1"
     inkscape:document-units="mm"
     inkscape:cy="6.4848117"
     inkscape:cx="2.5356354"
     inkscape:zoom="126.71354"
     inkscape:pageshadow="2"
     inkscape:pageopacity="0.0"
     borderopacity="1.0"
     bordercolor="#666666"
     pagecolor="#ffffff"
     id="namedview842" />
  <metadata
     id="metadata371">
    <rdf:RDF>
      <cc:Work
         rdf:about="">
        <dc:format>image/svg+xml</dc:format>
        <dc:type
           rdf:resource="http://purl.org/dc/dcmitype/StillImage" />
        <dc:title></dc:title>
      </cc:Work>
    </rdf:RDF>
  </metadata>
  <g
     transform="translate(-52.919324,-4.8068257)"
     id="layer1"
     inkscape:groupmode="layer"
     inkscape:label="レイヤー 1">
    <g
       transform="matrix(0.47619048,0,0,0.48929635,40.252341,-3.2962564)"
       id="w1">
      <path
         d="m 27.316572,18.366099 c 1.776211,-0.02294 4.193441,-0.286357 4.643204,-1.612305 h 3.509661 v 13.749343 c 0,0.485156 0.03218,0.766735 0.295462,1.008 0.26328,0.241265 0.987722,0.296039 1.588109,0.294969 l 0.561293,-0.001 c 0,0 0.780591,-0.04952 0.780591,0.5481 v 1.664653 H 26.600665 v -1.664848 c 0,-0.56372 0.793296,-0.547905 0.793296,-0.547905 l 0.537177,0.001 c 0.551528,0.001 1.170734,-0.03197 1.515102,-0.297657 0.344368,-0.26569 0.354554,-0.541568 0.354554,-1.004589 v -9.144661 c 0,-0.264583 -0.09848,-0.467155 -0.295462,-0.607715 -0.187125,-0.14056 -0.419006,-0.21084 -0.720892,-0.21084 h -1.467868 z"
         style="font-style:normal;font-variant:normal;font-weight:bold;font-stretch:normal;font-family:'Century Schoolbook';-inkscape-font-specification:'Century Schoolbook Bold';stroke-width:0.288766"
         id="digit"
         sodipodi:nodetypes="cccszscsccscszsscscc" />
    </g>
  </g>
</svg>
