<?xml version="1.0" encoding="UTF-8" standalone="no"?>
<svg
   xmlns:dc="http://purl.org/dc/elements/1.1/"
   xmlns:cc="http://creativecommons.org/ns#"
   xmlns:rdf="http://www.w3.org/1999/02/22-rdf-syntax-ns#"
   xmlns:svg="http://www.w3.org/2000/svg"
   xmlns="http://www.w3.org/2000/svg"
   xmlns:sodipodi="http://sodipodi.sourceforge.net/DTD/sodipodi-0.dtd"
   xmlns:inkscape="http://www.inkscape.org/namespaces/inkscape"
   sodipodi:docname="digit-w3.svg"
   inkscape:version="1.0 (4035a4fb49, 2020-05-01)"
   id="base"
   version="1.1"
   viewBox="0 0 13.622678 18.070247">
  <defs
     id="defs455" />
  <sodipodi:namedview
     inkscape:window-maximized="0"
     inkscape:window-y="24"
     inkscape:window-x="24"
     inkscape:window-height="1198"
     inkscape:window-width="1638"
     showgrid="false"
     inkscape:document-rotation="0"
     inkscape:current-layer="layer1"
     inkscape:document-units="mm"
     inkscape:cy="5.7443753"
     inkscape:cx="4.0987023"
     inkscape:zoom="64"
     inkscape:pageshadow="2"
     inkscape:pageopacity="0.0"
     borderopacity="1.0"
     bordercolor="#666666"
     pagecolor="#ffffff"
     id="namedview1524" />
  <metadata
     id="metadata458">
    <rdf:RDF>
      <cc:Work
         rdf:about="">
        <dc:format>image/svg+xml</dc:format>
        <dc:type
           rdf:resource="http://purl.org/dc/dcmitype/StillImage" />
        <dc:title></dc:title>
      </cc:Work>
    </rdf:RDF>
  </metadata>
  <g
     transform="translate(-60.478218,-61.120759)"
     id="layer1"
     inkscape:groupmode="layer"
     inkscape:label="レイヤー 1">
    <g
       id="w3"
       transform="translate(-0.03481015,44.801055)"
       style="display:inline">
      <path
         sodipodi:nodetypes="ssssscscszszssscszzscsszszzszscsccscss"
         id="path841"
         d="m 69.260393,24.703697 c 1.615189,0.363802 2.831507,0.95498 3.648951,1.773535 0.817443,0.818555 1.226165,1.794206 1.226165,2.926953 0,1.488281 -0.635243,2.691309 -1.905727,3.609082 -1.270484,0.917773 -3.048179,1.37666 -5.333081,1.37666 -2.028836,0 -3.599708,-0.396875 -4.712613,-1.190625 -1.112904,-0.802018 -1.707203,-1.823551 -1.669357,-3.063379 0.0398,-1.303652 0.465289,-1.790471 1.037714,-2.412603 0.437304,-0.441283 1.113706,-0.761852 1.822814,-0.761852 0.640166,0 1.818516,0.147223 2.026149,1.02633 0.207634,0.879107 -0.05272,1.48682 -0.03795,2.367907 0.01576,0.940271 0.133679,1.431407 0.393904,1.97646 0.260225,0.545052 0.670975,0.861969 1.18863,0.86452 0.636218,0.0031 1.082252,-0.2944 1.491303,-0.952364 0.431871,-0.69467 0.730236,-1.604036 0.730236,-2.926953 0,-1.30638 -0.241686,-2.273763 -0.725058,-2.902148 -0.475314,-0.628385 -1.362564,-0.947029 -1.997164,-0.942578 -1.466146,0.01028 -2.228119,-0.140541 -2.380421,-0.358513 -0.152302,-0.217972 -0.160299,-0.324406 0.001,-0.530912 0.161303,-0.206506 0.896642,-0.355632 2.343293,-0.363208 0.886373,-0.0046 1.386705,-0.256315 1.808063,-0.768945 0.413096,-0.504362 0.619645,-1.347721 0.619645,-2.530078 0,-1.182357 -0.22853,-2.012328 -0.630867,-2.575177 -0.336043,-0.470108 -0.600817,-0.723388 -1.110784,-0.723933 -0.509967,-5.45e-4 -0.867125,0.279854 -1.161363,0.736834 -0.194314,0.301788 -0.37542,0.722252 -0.35703,1.503624 0.01839,0.781372 0.317469,1.629774 0.05012,2.21097 -0.267345,0.581196 -1.131828,0.735153 -1.780173,0.649547 -0.596494,-0.07876 -1.274473,-0.348134 -1.69498,-0.762355 -0.420508,-0.414221 -0.84078,-0.984746 -0.854115,-1.746444 -0.01865,-1.065564 0.398873,-1.72806 1.19662,-2.455664 1.024266,-0.950846 2.521271,-1.426269 4.491015,-1.426269 1.319729,0 2.457256,0.194303 3.412582,0.58291 0.965174,0.380339 1.69398,0.901237 2.186415,1.562695 0.502285,0.65319 0.753428,1.372526 0.753428,2.158008 0,0.851627 -0.315159,1.616438 -0.945478,2.294433 -0.62047,0.677995 -1.664433,1.269174 -3.131892,1.773536 z" />
    </g>
  </g>
</svg>
