<?xml version="1.0" encoding="UTF-8" standalone="no"?>
<svg
   xmlns:dc="http://purl.org/dc/elements/1.1/"
   xmlns:cc="http://creativecommons.org/ns#"
   xmlns:rdf="http://www.w3.org/1999/02/22-rdf-syntax-ns#"
   xmlns:svg="http://www.w3.org/2000/svg"
   xmlns="http://www.w3.org/2000/svg"
   xmlns:sodipodi="http://sodipodi.sourceforge.net/DTD/sodipodi-0.dtd"
   xmlns:inkscape="http://www.inkscape.org/namespaces/inkscape"
   sodipodi:docname="digit-month-10.svg"
   inkscape:version="1.0 (4035a4fb49, 2020-05-01)"
   id="base"
   version="1.1"
   viewBox="0 0 60.910085 78.418976">
  <defs
     id="defs1314" />
  <sodipodi:namedview
     inkscape:window-maximized="0"
     inkscape:window-y="22"
     inkscape:window-x="24"
     inkscape:window-height="1198"
     inkscape:window-width="1638"
     fit-margin-bottom="0"
     fit-margin-right="0"
     fit-margin-left="0"
     fit-margin-top="0"
     showgrid="false"
     inkscape:document-rotation="0"
     inkscape:current-layer="layer1"
     inkscape:document-units="mm"
     inkscape:cy="120.96912"
     inkscape:cx="6.3346281"
     inkscape:zoom="1.4"
     inkscape:pageshadow="2"
     inkscape:pageopacity="0.0"
     borderopacity="1.0"
     bordercolor="#666666"
     pagecolor="#ffffff"
     id="namedview1343" />
  <metadata
     id="metadata1317">
    <rdf:RDF>
      <cc:Work
         rdf:about="">
        <dc:format>image/svg+xml</dc:format>
        <dc:type
           rdf:resource="http://purl.org/dc/dcmitype/StillImage" />
        <dc:title></dc:title>
      </cc:Work>
    </rdf:RDF>
  </metadata>
  <g
     transform="translate(9.9082049,5.7084887)"
     id="layer1"
     inkscape:groupmode="layer"
     inkscape:label="レイヤー 1">
    <path
       d="M 1.1055532,-5.7084887 -9.9082049,1.3488778 v 8.8289972 h 5.3660142 l 7.56e-5,62.473386 H 8.4575453 V -5.7084887 Z"
       id="path1281"
       sodipodi:nodetypes="cccccccc" />
    <path
       d="M 22.418351,-5.6715811 C 12.487025,-5.6717248 12.449683,5.7109914 12.449683,5.7109914 V 61.372359 c 0,0 -0.0076,11.338132 9.929965,11.338132 H 34.04954 c 9.917984,0 9.95234,-11.321831 9.95234,-11.321831 V 12.148701 5.6669024 c 0,0 -0.0033,-11.3381698 -9.911332,-11.3383135 z m 5.849308,12.9996716 h 0.06614 c 3.43159,0 3.418135,4.9533115 3.418135,4.9533115 v 42.645714 c 0,0 0.115277,4.78353 -3.418135,4.78353 h -0.06614 c -3.589198,0 -3.568335,-4.835201 -3.568335,-4.835201 V 12.421662 c 0,0 -0.04233,-5.0935715 3.568335,-5.0935715 z"
       id="path5195"
       sodipodi:nodetypes="sccsscccssssccssccs" />
  </g>
</svg>
