<?xml version="1.0" encoding="UTF-8" standalone="no"?>
<svg
   xmlns:dc="http://purl.org/dc/elements/1.1/"
   xmlns:cc="http://creativecommons.org/ns#"
   xmlns:rdf="http://www.w3.org/1999/02/22-rdf-syntax-ns#"
   xmlns:svg="http://www.w3.org/2000/svg"
   xmlns="http://www.w3.org/2000/svg"
   xmlns:sodipodi="http://sodipodi.sourceforge.net/DTD/sodipodi-0.dtd"
   xmlns:inkscape="http://www.inkscape.org/namespaces/inkscape"
   viewBox="0 0 2.0962429 4.7810802"
   version="1.1"
   id="base"
   inkscape:version="1.0 (4035a4fb49, 2020-05-01)"
   sodipodi:docname="digit-n3.svg">
  <defs
     id="defs154" />
  <sodipodi:namedview
     id="namedview7120"
     pagecolor="#ffffff"
     bordercolor="#666666"
     borderopacity="1.0"
     inkscape:pageopacity="0.0"
     inkscape:pageshadow="2"
     inkscape:zoom="256"
     inkscape:cx="1.2425416"
     inkscape:cy="2.7933887"
     inkscape:document-units="mm"
     inkscape:current-layer="layer1"
     inkscape:document-rotation="0"
     showgrid="false"
     inkscape:window-width="1638"
     inkscape:window-height="1198"
     inkscape:window-x="97"
     inkscape:window-y="155"
     inkscape:window-maximized="0"
     fit-margin-top="0"
     fit-margin-left="0"
     fit-margin-right="0"
     fit-margin-bottom="0" />
  <metadata
     id="metadata157">
    <rdf:RDF>
      <cc:Work
         rdf:about="">
        <dc:format>image/svg+xml</dc:format>
        <dc:type
           rdf:resource="http://purl.org/dc/dcmitype/StillImage" />
        <dc:title></dc:title>
      </cc:Work>
    </rdf:RDF>
  </metadata>
  <g
     inkscape:label="レイヤー 1"
     inkscape:groupmode="layer"
     id="layer1">
    <g
       id="n3"
       transform="matrix(0.26458333,0,0,0.26458333,-12.256496,-9.9182686)">
      <path
         d="m 51.411242,45.870364 c 0.939382,0.363802 1.646783,0.95498 2.122202,1.773535 0.475419,0.818555 0.713129,1.794206 0.713129,2.926953 0,1.488281 -0.369453,2.691309 -1.108357,3.609082 -0.738904,0.917773 -1.772798,1.37666 -3.10168,1.37666 -1.179956,0 -2.093562,-0.396875 -2.74082,-1.190625 -0.647257,-0.802018 -0.992897,-1.823551 -0.970885,-3.063379 0.02314,-1.303652 0.270608,-1.790471 0.603526,-2.412603 0.254333,-0.441283 0.647957,-0.747956 1.060135,-0.761852 0.437931,-0.01476 0.82173,0.09035 1.153854,0.478841 0.230666,0.269813 0.227212,0.64754 0.22718,0.878218 l -2.85e-4,2.037178 2.85e-4,1.97646 c -0.005,0.6885 0.424542,0.860963 0.701662,0.86452 0.277121,0.0036 0.799874,-0.189149 0.812516,-0.868842 0.01264,-0.679694 0.05592,-2.977066 0.05592,-2.977066 l -9.8e-5,-2.56965 c -1.4e-5,-0.35463 -0.06676,-0.58138 -0.145985,-0.758459 -0.205568,-0.415773 -0.493678,-0.551429 -1.004752,-0.56673 -0.803399,-0.007 -1.246973,-0.09219 -1.386726,-0.283344 -0.123393,-0.168778 -0.105734,-0.382871 -0.01193,-0.589377 0.09381,-0.206506 0.521499,-0.350991 1.362841,-0.363208 0.515515,0 0.747438,-0.22088 0.992497,-0.73351 0.07223,-0.151633 0.06229,-0.463355 0.0579,-0.803912 l -0.02234,-1.732072 -0.05518,-2.608626 c -0.01077,-0.509001 -0.352706,-0.719404 -0.632929,-0.720013 -0.280223,-6.09e-4 -0.622424,0.197345 -0.616381,0.736834 l 0.01678,1.497718 0.01381,1.577084 c 0.0036,0.405411 -0.06496,0.702472 -0.193935,0.860285 -0.214884,0.262929 -0.511875,0.469532 -1.050484,0.429054 -0.429133,-0.03225 -0.874097,-0.244788 -1.133425,-0.762355 -0.259328,-0.517567 -0.349109,-1.10979 -0.349109,-1.746444 0,-0.909505 0.231982,-1.72806 0.695945,-2.455664 0.595706,-0.950846 1.466353,-1.426269 2.611941,-1.426269 0.767544,0 1.429121,0.194303 1.984732,0.58291 0.561338,0.380339 0.985206,0.901237 1.271602,1.562695 0.292126,0.65319 0.438188,1.372526 0.438188,2.158008 0,0.851627 -0.183294,1.616438 -0.549882,2.294433 -0.360861,0.677995 -0.968022,1.269174 -1.821486,1.773536 z"
         id="path841-6"
         sodipodi:nodetypes="ssssscscssscczzcsccszccscszscssszscsccscss" />
    </g>
  </g>
</svg>
