<?xml version="1.0" encoding="UTF-8" standalone="no"?>
<svg
   xmlns:dc="http://purl.org/dc/elements/1.1/"
   xmlns:cc="http://creativecommons.org/ns#"
   xmlns:rdf="http://www.w3.org/1999/02/22-rdf-syntax-ns#"
   xmlns:svg="http://www.w3.org/2000/svg"
   xmlns="http://www.w3.org/2000/svg"
   xmlns:sodipodi="http://sodipodi.sourceforge.net/DTD/sodipodi-0.dtd"
   xmlns:inkscape="http://www.inkscape.org/namespaces/inkscape"
   viewBox="0 0 45.052878 78.39064"
   version="1.1"
   id="base"
   inkscape:version="1.0 (4035a4fb49, 2020-05-01)"
   sodipodi:docname="digit-month-9.svg">
  <defs
     id="defs1314" />
  <sodipodi:namedview
     id="namedview1343"
     pagecolor="#ffffff"
     bordercolor="#666666"
     borderopacity="1.0"
     inkscape:pageopacity="0.0"
     inkscape:pageshadow="2"
     inkscape:zoom="1.4"
     inkscape:cx="1.1810515"
     inkscape:cy="115.39312"
     inkscape:document-units="mm"
     inkscape:current-layer="layer1"
     inkscape:document-rotation="0"
     showgrid="false"
     fit-margin-top="0"
     fit-margin-left="0"
     fit-margin-right="0"
     fit-margin-bottom="0"
     inkscape:window-width="1638"
     inkscape:window-height="1198"
     inkscape:window-x="24"
     inkscape:window-y="22"
     inkscape:window-maximized="0" />
  <metadata
     id="metadata1317">
    <rdf:RDF>
      <cc:Work
         rdf:about="">
        <dc:format>image/svg+xml</dc:format>
        <dc:type
           rdf:resource="http://purl.org/dc/dcmitype/StillImage" />
        <dc:title></dc:title>
      </cc:Work>
    </rdf:RDF>
  </metadata>
  <g
     inkscape:label="レイヤー 1"
     inkscape:groupmode="layer"
     id="layer1"
     transform="translate(4.7546284,0.13248633)">
    <path
       sodipodi:nodetypes="sccssccssccccccssccccccssssccsscccs"
       d="m 6.6040714,-0.13245633 c -11.3456398,2e-5 -11.3586998,11.36221933 -11.3586998,11.36221933 l 5e-4,25.64364 c 0,0 -0.0111,11.361329 11.3457098,11.361329 H 24.252111 c 1.511,0 3.03814,-1.45312 3.03814,-1.45312 v 13.60351 c 0,0 0.17865,4.87305 -4.87109,4.87305 h -9.42774 c -5.0036997,0 -4.7460897,-4.83594 -4.7460897,-4.83594 v -0.0215 -3.35938 H 0.3859515 l -5.1400799,4.99977 v 4.85707 c 0,0 -0.003,11.35996 11.3080498,11.35996 H 28.919161 c 11.336069,0 11.371089,-11.39063 11.371089,-11.39063 -0.0163,0.0204 0,-35.180559 0,-36.503929 0,-1e-4 0.008,-0.0293 0.008,-0.0293 h -0.008 v -12.58594 -6.51214 c 0,0 -0.0233,-11.36871933 -11.353179,-11.36869933 z M 12.968031,12.867543 h 9.40625 c 4.92354,0 4.91601,4.92383 4.91601,4.92383 v 12.50586 c 0,0 0.058,4.9375 -4.82031,4.9375 h -9.32422 c -4.8210397,0 -4.9023397,-4.89258 -4.9023397,-4.89258 v -12.68359 -0.0293 c 0,0 0.019,-4.76172 4.7246097,-4.76172 z"
       id="path1249" />
  </g>
</svg>
