<?xml version="1.0" encoding="UTF-8" standalone="no"?>
<svg
   xmlns:dc="http://purl.org/dc/elements/1.1/"
   xmlns:cc="http://creativecommons.org/ns#"
   xmlns:rdf="http://www.w3.org/1999/02/22-rdf-syntax-ns#"
   xmlns:svg="http://www.w3.org/2000/svg"
   xmlns="http://www.w3.org/2000/svg"
   xmlns:sodipodi="http://sodipodi.sourceforge.net/DTD/sodipodi-0.dtd"
   xmlns:inkscape="http://www.inkscape.org/namespaces/inkscape"
   viewBox="0 0 2.1027973 4.7810802"
   version="1.1"
   id="base"
   inkscape:version="1.0 (4035a4fb49, 2020-05-01)"
   sodipodi:docname="digit-n7.svg">
  <defs
     id="defs270" />
  <sodipodi:namedview
     id="namedview1412"
     pagecolor="#ffffff"
     bordercolor="#666666"
     borderopacity="1.0"
     inkscape:pageopacity="0.0"
     inkscape:pageshadow="2"
     inkscape:zoom="256"
     inkscape:cx="0.18062734"
     inkscape:cy="2.285861"
     inkscape:document-units="mm"
     inkscape:current-layer="layer1"
     inkscape:document-rotation="0"
     showgrid="false"
     inkscape:window-width="1638"
     inkscape:window-height="1198"
     inkscape:window-x="122"
     inkscape:window-y="122"
     inkscape:window-maximized="0" />
  <metadata
     id="metadata273">
    <rdf:RDF>
      <cc:Work
         rdf:about="">
        <dc:format>image/svg+xml</dc:format>
        <dc:type
           rdf:resource="http://purl.org/dc/dcmitype/StillImage" />
        <dc:title></dc:title>
      </cc:Work>
    </rdf:RDF>
  </metadata>
  <g
     inkscape:label="レイヤー 1"
     inkscape:groupmode="layer"
     id="layer1"
     transform="translate(-0.4605064,0.12268237)">
    <g
       id="n7"
       transform="matrix(0.26441191,0,0,0.26678194,-22.520316,-10.163076)">
      <path
         d="m 87.488684,37.635207 c 0.576887,0.173568 1.031008,0.244874 1.460619,0.248047 h 5.911241 v 2.631438 c -1.065411,1.605589 -1.250337,1.858727 -1.746045,2.9467 -0.495709,1.087973 -0.90292,2.874463 -0.966734,4.280034 -0.06381,1.405571 0.191652,2.671984 0.157982,4.300326 -0.03365,1.628341 -0.152674,2.062332 -0.325515,2.450939 -0.163232,0.380339 -0.258588,0.590419 -0.633067,0.805393 -0.36486,0.214974 -0.590332,0.25851 -1.118423,0.25851 -0.662535,0 -0.858796,-0.165365 -1.199085,-0.496094 -0.34028,-0.330729 -0.510419,-0.814421 -0.510419,-1.451074 0,-0.355534 0.01755,-0.776573 0.10805,-1.394875 0.09055,-0.618303 0.306931,-1.632366 0.630528,-2.880094 0.323597,-1.247728 0.702107,-2.630408 1.43283,-4.314965 0.730725,-1.684558 2.196311,-4.023249 2.196311,-4.023249 h -2.975435 c -0.345837,0 -0.685608,0.165364 -0.819,0.496093 -0.114407,0.283659 -0.291651,0.889762 -0.392288,1.836293 -0.05396,0.507483 -0.754164,0.495348 -0.754164,0.495348 h -1.03304 z"
         id="path849-3"
         sodipodi:nodetypes="cccczzzccssszzzcsssccc" />
    </g>
  </g>
</svg>
