<?xml version="1.0" encoding="UTF-8" standalone="no"?>
<svg
   xmlns:dc="http://purl.org/dc/elements/1.1/"
   xmlns:cc="http://creativecommons.org/ns#"
   xmlns:rdf="http://www.w3.org/1999/02/22-rdf-syntax-ns#"
   xmlns:svg="http://www.w3.org/2000/svg"
   xmlns="http://www.w3.org/2000/svg"
   xmlns:sodipodi="http://sodipodi.sourceforge.net/DTD/sodipodi-0.dtd"
   xmlns:inkscape="http://www.inkscape.org/namespaces/inkscape"
   viewBox="0 0 2.1323357 4.7810211"
   version="1.1"
   id="base"
   inkscape:version="1.0 (4035a4fb49, 2020-05-01)"
   sodipodi:docname="digit-n2.svg">
  <defs
     id="defs115" />
  <sodipodi:namedview
     id="namedview6549"
     pagecolor="#ffffff"
     bordercolor="#666666"
     borderopacity="1.0"
     inkscape:pageopacity="0.0"
     inkscape:pageshadow="2"
     inkscape:zoom="256"
     inkscape:cx="1.27236"
     inkscape:cy="3.0393828"
     inkscape:document-units="mm"
     inkscape:current-layer="layer1"
     inkscape:document-rotation="0"
     showgrid="false"
     inkscape:window-width="1638"
     inkscape:window-height="1198"
     inkscape:window-x="110"
     inkscape:window-y="112"
     inkscape:window-maximized="0"
     fit-margin-top="0"
     fit-margin-left="0"
     fit-margin-right="0"
     fit-margin-bottom="0" />
  <metadata
     id="metadata118">
    <rdf:RDF>
      <cc:Work
         rdf:about="">
        <dc:format>image/svg+xml</dc:format>
        <dc:type
           rdf:resource="http://purl.org/dc/dcmitype/StillImage" />
        <dc:title></dc:title>
      </cc:Work>
    </rdf:RDF>
  </metadata>
  <g
     inkscape:label="レイヤー 1"
     inkscape:groupmode="layer"
     id="layer1">
    <g
       id="n2"
       transform="matrix(0.26458333,0,0,0.26930779,-9.5402101,-10.095472)"
       style="display:inline">
      <path
         d="m 38.314713,51.381379 3.587455,3.46e-4 c 1.000548,9.7e-5 1.416398,-0.795852 1.603565,-1.265905 0.09016,-0.226434 0.313284,-0.248653 0.313284,-0.248653 h 0.297692 l -0.265373,5.206912 -7.793846,0.02362 v -1.066601 c 0.09083,-0.967383 -0.01432,-2.234784 1.222916,-4.227427 1.094036,-1.769401 2.705493,-3.871894 3.09879,-4.701079 0.49246,-1.027768 0.3492,-3.072661 0.3492,-3.072661 0,0 0.01137,-1.866275 0.0059,-2.402005 -0.0055,-0.53573 -0.405431,-0.71211 -0.605254,-0.708788 -0.248733,0.0041 -0.69486,0.205342 -0.703475,0.758384 -0.0086,0.553042 0.0054,1.356256 0.0054,1.356256 0,0 0.02038,1.367543 0.01582,2.25689 -0.0029,0.5705 -0.07109,1.05739 -0.327456,1.399362 -0.321419,0.428756 -0.725601,0.584034 -1.214538,0.560208 -0.595305,-0.02901 -0.764681,-0.252181 -1.039622,-0.756543 -0.274941,-0.51263 -0.412412,-1.231966 -0.412412,-2.158007 0,-1.289844 0.292125,-2.368848 0.876376,-3.237012 0.715992,-1.066601 1.689742,-1.599902 2.921249,-1.599902 1.099765,0 1.987596,0.44235 2.663493,1.32705 0.675897,0.884701 1.013845,1.976107 1.013845,3.274219 0,0.694531 -0.08306,1.331185 -0.249165,1.909961 -0.22339,0.785482 -0.521243,1.484147 -0.893559,2.095996 -0.372316,0.611849 -1.082652,1.323351 -1.991583,2.413732 -0.873287,0.969957 -1.999103,2.313714 -2.478668,2.861647 z"
         id="path839-9"
         sodipodi:nodetypes="csscccccccczszcssscscssscsccc" />
    </g>
  </g>
</svg>
