<?xml version="1.0" encoding="UTF-8" standalone="no"?>
<svg
   xmlns:dc="http://purl.org/dc/elements/1.1/"
   xmlns:cc="http://creativecommons.org/ns#"
   xmlns:rdf="http://www.w3.org/1999/02/22-rdf-syntax-ns#"
   xmlns:svg="http://www.w3.org/2000/svg"
   xmlns="http://www.w3.org/2000/svg"
   xmlns:sodipodi="http://sodipodi.sourceforge.net/DTD/sodipodi-0.dtd"
   xmlns:inkscape="http://www.inkscape.org/namespaces/inkscape"
   viewBox="0 0 3.5764711 4.7810864"
   version="1.1"
   id="base"
   inkscape:version="1.0 (4035a4fb49, 2020-05-01)"
   sodipodi:docname="digit-w5.svg">
  <defs
     id="defs513" />
  <sodipodi:namedview
     id="namedview3698"
     pagecolor="#ffffff"
     bordercolor="#666666"
     borderopacity="1.0"
     inkscape:pageopacity="0.0"
     inkscape:pageshadow="2"
     inkscape:zoom="179.2"
     inkscape:cx="1.0088607"
     inkscape:cy="4.2569434"
     inkscape:document-units="mm"
     inkscape:current-layer="layer1"
     inkscape:document-rotation="0"
     showgrid="false"
     inkscape:window-width="1638"
     inkscape:window-height="1198"
     inkscape:window-x="73"
     inkscape:window-y="73"
     inkscape:window-maximized="0" />
  <metadata
     id="metadata516">
    <rdf:RDF>
      <cc:Work
         rdf:about="">
        <dc:format>image/svg+xml</dc:format>
        <dc:type
           rdf:resource="http://purl.org/dc/dcmitype/StillImage" />
        <dc:title></dc:title>
      </cc:Work>
    </rdf:RDF>
  </metadata>
  <g
     inkscape:label="レイヤー 1"
     inkscape:groupmode="layer"
     id="layer1"
     transform="translate(-95.729622,-86.811838)">
    <g
       id="w5"
       transform="matrix(0.26458333,0,0,0.26458333,70.556415,82.493916)">
      <path
         sodipodi:nodetypes="ccscsscsscccscscscszsszzscscsszsccc"
         id="path845"
         d="m 97.122421,16.319712 c 0.341626,0.142481 1.426684,0.402226 1.426684,0.402226 l 5.705935,-0.01116 c 0.61921,-0.0012 1.28311,0.03888 2.15965,-0.21743 0.35455,-0.107487 0.56137,-0.16123 0.62047,-0.16123 0.13788,0 0.20682,0.08268 0.20682,0.248047 0,0.545703 -0.43897,1.274277 -0.7682,1.74873 -0.50228,0.852429 -1.16215,1.494592 -1.97959,1.92649 -0.81745,0.431898 -1.85156,0.31376 -3.10235,0.31376 -0.94548,0 -3.205757,-0.0069 -3.205757,-0.0069 l -0.325008,2.814389 c 0.738654,-0.28112 1.432988,-0.487826 2.083003,-0.620117 0.659862,-0.14056 1.275412,-0.21084 1.846632,-0.21084 1.89096,0 3.50615,0.525032 4.84557,1.575097 1.34928,1.041797 2.02392,2.434994 2.02392,4.17959 0,1.794206 -0.69434,3.257683 -2.08301,4.39043 -1.37882,1.132747 -3.20083,1.699121 -5.46604,1.699121 -1.802313,0 -3.250075,-0.396875 -4.343283,-1.190625 -1.083358,-0.79375 -1.625038,-1.752865 -1.625038,-2.877344 0,-0.967874 0.316814,-1.425906 0.751289,-1.929862 0.434476,-0.503956 1.065999,-0.755865 1.993779,-0.755865 0.859039,0 1.320363,0.348596 1.521025,0.571013 0.254018,0.281554 0.540359,0.894346 0.391646,1.930798 -0.148713,1.036452 0.03691,1.932819 0.415762,2.374996 0.37885,0.442177 0.8006,0.639609 1.27596,0.625433 0.45853,-0.01367 1.09646,-0.367936 1.5356,-1.103809 0.43913,-0.744141 0.6587,-2.013314 0.6587,-3.807519 0,-1.513086 -0.21281,-2.616895 -0.63843,-3.311426 -0.41887,-0.694531 -0.961,-0.967849 -1.6113,-1.041797 -0.5876,-0.06682 -1.556798,0.0939 -2.068931,0.234464 -0.512134,0.14056 -0.919374,0.303787 -1.236739,0.523942 -0.317365,0.220155 -0.67644,0.772152 -0.748689,0.91898 -0.159168,0.32347 -1.283043,0.174378 -1.283043,0.174378 0.452137,-3.497935 0.755613,-6.060141 1.022963,-9.405968 z" />
    </g>
  </g>
</svg>
