<?xml version="1.0" encoding="UTF-8" standalone="no"?>
<svg
   xmlns:dc="http://purl.org/dc/elements/1.1/"
   xmlns:cc="http://creativecommons.org/ns#"
   xmlns:rdf="http://www.w3.org/1999/02/22-rdf-syntax-ns#"
   xmlns:svg="http://www.w3.org/2000/svg"
   xmlns="http://www.w3.org/2000/svg"
   xmlns:sodipodi="http://sodipodi.sourceforge.net/DTD/sodipodi-0.dtd"
   xmlns:inkscape="http://www.inkscape.org/namespaces/inkscape"
   sodipodi:docname="digit-w4.svg"
   inkscape:version="1.0 (4035a4fb49, 2020-05-01)"
   id="base"
   version="1.1"
   viewBox="0 0 3.8149898 4.7810864">
  <defs
     id="defs484" />
  <sodipodi:namedview
     inkscape:window-maximized="0"
     inkscape:window-y="49"
     inkscape:window-x="49"
     inkscape:window-height="1198"
     inkscape:window-width="1638"
     showgrid="false"
     inkscape:document-rotation="0"
     inkscape:current-layer="layer1"
     inkscape:document-units="mm"
     inkscape:cy="1.4599102"
     inkscape:cx="1.8916665"
     inkscape:zoom="256"
     inkscape:pageshadow="2"
     inkscape:pageopacity="0.0"
     borderopacity="1.0"
     bordercolor="#666666"
     pagecolor="#ffffff"
     id="namedview3127" />
  <metadata
     id="metadata487">
    <rdf:RDF>
      <cc:Work
         rdf:about="">
        <dc:format>image/svg+xml</dc:format>
        <dc:type
           rdf:resource="http://purl.org/dc/dcmitype/StillImage" />
        <dc:title></dc:title>
      </cc:Work>
    </rdf:RDF>
  </metadata>
  <g
     transform="translate(-85.782981,-49.014219)"
     id="layer1"
     inkscape:groupmode="layer"
     inkscape:label="レイヤー 1">
    <g
       transform="matrix(0.26458333,0,0,0.26458333,65.33937,44.696297)"
       id="w4">
      <path
         d="m 85.776501,16.394126 h 2.954811 l -2.1e-4,10.192911 h 1.16895 c 0.757676,0 1.071557,-0.546902 1.071557,-0.546902 0.184363,-0.276635 0.461343,-0.263873 0.461343,-0.263873 l 0.252766,5.25e-4 -0.442702,3.962298 h -2.511704 v 1.050065 c 0,0.338998 0.113255,0.595313 0.339781,0.768946 0.236369,0.165364 0.695553,0.248047 1.093209,0.248047 l 0.324243,-0.0017 c 0,0 0.45873,-0.0027 0.45873,0.457114 v 1.75632 h -9.203628 v -1.75632 c 0,-0.42815 0.523373,-0.457114 0.523373,-0.457114 l 0.353162,0.0017 c 0.590916,0.0028 0.989797,-0.09509 1.19662,-0.285254 0.275764,-0.239779 0.413645,-0.696026 0.413645,-1.103809 v -0.677995 h -6.963043 l -2.11e-4,-2.797699 c 0,-0.383858 0.206233,-0.598186 0.400516,-0.840013 l 7.492277,-9.32577 c 0.141021,-0.175532 0.334869,-0.381477 0.616515,-0.381477 z m -1.546054,4.357357 -4.70799,5.835554 h 4.70778 z"
         id="path843"
         sodipodi:nodetypes="cccscccccscscsccscscscccssccccc" />
    </g>
  </g>
</svg>
