<?xml version="1.0" encoding="UTF-8" standalone="no"?>
<svg
   xmlns:dc="http://purl.org/dc/elements/1.1/"
   xmlns:cc="http://creativecommons.org/ns#"
   xmlns:rdf="http://www.w3.org/1999/02/22-rdf-syntax-ns#"
   xmlns:svg="http://www.w3.org/2000/svg"
   xmlns="http://www.w3.org/2000/svg"
   xmlns:sodipodi="http://sodipodi.sourceforge.net/DTD/sodipodi-0.dtd"
   xmlns:inkscape="http://www.inkscape.org/namespaces/inkscape"
   sodipodi:docname="gear.svg"
   inkscape:version="1.0 (4035a4fb49, 2020-05-01)"
   id="main"
   version="1.1"
   viewBox="0 0 43.37169 46.82195">
  <defs
     id="defs2">
    <inkscape:path-effect
       hide_knots="false"
       only_selected="true"
       apply_with_radius="true"
       apply_no_radius="true"
       use_knot_distance="true"
       flexible="false"
       chamfer_steps="1"
       radius="28"
       mode="F"
       method="auto"
       unit="px"
       satellites_param="F,0,1,1,0,7.4083333,0,1 @ F,0,1,1,0,7.4083333,0,1 @ F,0,1,1,0,7.4083333,0,1 @ F,0,1,1,0,7.4083333,0,1 @ F,0,1,1,0,7.4083333,0,1 @ F,0,1,1,0,7.4083333,0,1 @ F,0,1,1,0,7.4083333,0,1 @ F,0,1,1,0,7.4083333,0,1 @ F,0,1,1,0,7.4083333,0,1 @ F,0,1,1,0,7.4083333,0,1 @ F,0,1,1,0,7.4083333,0,1 @ F,0,1,1,0,7.4083333,0,1 @ F,0,1,1,0,7.4083333,0,1 @ F,0,1,1,0,7.4083333,0,1 @ F,0,1,1,0,7.4083333,0,1 @ F,0,1,1,0,7.4083333,0,1 @ F,0,1,1,0,7.4083333,0,1 @ F,0,1,1,0,7.4083333,0,1 @ F,0,1,1,0,7.4083333,0,1 @ F,0,1,1,0,7.4083333,0,1 @ F,0,1,1,0,7.4083333,0,1 @ F,0,1,1,0,7.4083333,0,1 @ F,0,1,1,0,7.4083333,0,1 @ F,0,1,1,0,7.4083333,0,1 @ F,0,1,1,0,7.4083333,0,1 @ F,0,1,1,0,7.4083333,0,1 | F,0,0,1,0,0,0,1 @ F,0,0,1,0,0,0,1 @ F,0,0,1,0,0,0,1 @ F,0,0,1,0,0,0,1 @ F,0,0,1,0,0,0,1 @ F,0,0,1,0,0,0,1"
       lpeversion="1"
       is_visible="true"
       id="path-effect933"
       effect="fillet_chamfer" />
    <inkscape:path-effect
       min_radius="0.01"
       phi="0"
       teeth="10"
       lpeversion="1"
       is_visible="true"
       id="path-effect919"
       effect="gears" />
  </defs>
  <sodipodi:namedview
     inkscape:window-maximized="0"
     inkscape:window-y="121"
     inkscape:window-x="626"
     inkscape:window-height="1198"
     inkscape:window-width="1638"
     viewbox-height="46.82195"
     viewbox-width="44.67169"
     fit-margin-bottom="0"
     fit-margin-right="0"
     fit-margin-left="0"
     fit-margin-top="0"
     showgrid="false"
     inkscape:document-rotation="0"
     inkscape:current-layer="layer1"
     inkscape:document-units="mm"
     inkscape:cy="29.758734"
     inkscape:cx="19.774482"
     inkscape:zoom="15.839192"
     inkscape:pageshadow="2"
     inkscape:pageopacity="0.0"
     borderopacity="1.0"
     bordercolor="#666666"
     pagecolor="#ffffff"
     id="base" />
  <metadata
     id="metadata5">
    <rdf:RDF>
      <cc:Work
         rdf:about="">
        <dc:format>image/svg+xml</dc:format>
        <dc:type
           rdf:resource="http://purl.org/dc/dcmitype/StillImage" />
        <dc:title></dc:title>
      </cc:Work>
    </rdf:RDF>
  </metadata>
  <g
     transform="translate(-11.192242,-21.591963)"
     id="layer1"
     inkscape:groupmode="layer"
     inkscape:label="レイヤー 1">
    <path
       transform="scale(0.26458333)"
       d="m 107.85742,89.015755 v 13.417715 c 0,4.09151 -3.22492,8.24205 -7.01419,9.77899 -5.36909,2.17773 -10.408925,5.09333 -14.973237,8.66218 -3.221293,2.51874 -8.424007,3.24025 -11.967259,1.19432 l -11.451953,-6.61253 a 7.4078137,7.4078137 165.00078 0 0 -10.119654,2.7114 l -9.019676,15.62332 a 7.4085882,7.4085882 74.999756 0 0 2.711728,10.12013 l 11.504423,6.64228 c 3.543325,2.0458 5.531373,6.91564 4.97538,10.96677 -0.04975,0.3625 -0.09631,0.72543 -0.139672,1.08875 -0.484604,4.06028 -0.484153,10.72156 9.99e-4,14.78178 0.036,0.3013 0.0742,0.60233 0.114597,0.90307 0.544366,4.0527 -1.452892,8.92508 -4.996207,10.9709 l -11.477116,6.62659 a 7.4086241,7.4086241 105.0001 0 0 -2.71171,10.12016 l 9.019676,15.62332 a 7.4083027,7.4083027 15.001111 0 0 10.119898,2.71182 l 11.340137,-6.54696 c 3.543387,-2.0457 8.739078,-1.31704 11.95282,1.21133 4.601849,3.62044 9.691108,6.57498 15.116956,8.77607 3.78919,1.53715 7.01406,5.68786 7.01406,9.77937 l 0,13.59741 a 7.4083333,7.4083333 45 0 0 7.40833,7.40833 h 18.04076 a 7.4083333,7.4083333 135 0 0 7.40833,-7.40833 v -13.59741 c 0,-4.09151 3.22487,-8.24225 7.01404,-9.77943 5.25265,-2.13088 10.19065,-4.9682 14.67678,-8.43313 3.23621,-2.49953 8.45313,-3.20729 11.9965,-1.16156 l 10.99451,6.3476 a 7.4082169,7.4082169 164.99921 0 0 10.11986,-2.71175 l 9.01967,-15.62332 a 7.4085493,7.4085493 74.9996 0 0 -2.71175,-10.1201 l -10.87547,-6.27906 c -3.54334,-2.04579 -5.51211,-6.91024 -4.93178,-10.95795 0.0695,-0.48488 0.13332,-0.97055 0.1914,-1.45693 0.4848,-4.06026 0.48482,-10.72154 5e-5,-14.7818 -0.0445,-0.3727 -0.0924,-0.74499 -0.14358,-1.11683 -0.558,-4.05085 1.42857,-8.92004 4.97205,-10.96558 l 11.48435,-6.62955 a 7.4080416,7.4080416 105.00236 0 0 2.712,-10.11966 l -9.01967,-15.62332 a 7.4083806,7.4083806 15.001418 0 0 -10.11994,-2.71189 l -11.44553,6.60765 c -3.54341,2.04566 -8.74727,1.32493 -11.96964,-1.19243 -4.5581,-3.56084 -9.58987,-6.47047 -14.94976,-8.64473 -3.78921,-1.53711 -7.01409,-5.68778 -7.01409,-9.77929 V 89.015755 a 7.4083333,7.4083333 45 0 0 -7.40833,-7.408333 h -18.04076 a 7.4083333,7.4083333 135 0 0 -7.40833,7.408333 z m 16.39063,54.527215 c 0,0 0.002,0 0.002,0 0,0 0.0352,0 0.0352,0 14.61186,-1.4e-4 26.45713,11.84517 26.45694,26.45703 1.9e-4,14.61189 -11.84514,26.45722 -26.45703,26.45703 C 109.67327,196.45722 97.827939,184.61189 97.828125,170 c -2e-4,-14.59741 11.822525,-26.43674 26.419925,-26.45703 z"
       style="stroke:none;stroke-width:3.00094;stroke-miterlimit:4;stroke-dasharray:none;paint-order:stroke fill markers"
       id="rect837" />
  </g>
</svg>
