<?xml version="1.0" encoding="UTF-8" standalone="no"?>
<svg
   xmlns:dc="http://purl.org/dc/elements/1.1/"
   xmlns:cc="http://creativecommons.org/ns#"
   xmlns:rdf="http://www.w3.org/1999/02/22-rdf-syntax-ns#"
   xmlns:svg="http://www.w3.org/2000/svg"
   xmlns="http://www.w3.org/2000/svg"
   xmlns:sodipodi="http://sodipodi.sourceforge.net/DTD/sodipodi-0.dtd"
   xmlns:inkscape="http://www.inkscape.org/namespaces/inkscape"
   inkscape:version="1.0 (4035a4fb49, 2020-05-01)"
   sodipodi:docname="hand-with-arrow.svg"
   id="main"
   version="1.1"
   viewBox="0 0 31.884874 21.903798">
  <defs
     id="defs2" />
  <sodipodi:namedview
     fit-margin-bottom="0"
     fit-margin-right="0"
     fit-margin-left="0"
     fit-margin-top="0"
     inkscape:window-maximized="0"
     inkscape:window-y="166"
     inkscape:window-x="245"
     inkscape:window-height="1198"
     inkscape:window-width="1638"
     showgrid="false"
     inkscape:document-rotation="0"
     inkscape:current-layer="layer1"
     inkscape:document-units="mm"
     inkscape:cy="11.266918"
     inkscape:cx="19.326478"
     inkscape:zoom="22.4"
     inkscape:pageshadow="2"
     inkscape:pageopacity="0.0"
     borderopacity="1.0"
     bordercolor="#666666"
     pagecolor="#ffffff"
     id="base" />
  <metadata
     id="metadata5">
    <rdf:RDF>
      <cc:Work
         rdf:about="">
        <dc:format>image/svg+xml</dc:format>
        <dc:type
           rdf:resource="http://purl.org/dc/dcmitype/StillImage" />
        <dc:title></dc:title>
      </cc:Work>
    </rdf:RDF>
  </metadata>
  <g
     transform="translate(-10.25002,-24.03375)"
     id="layer1"
     inkscape:groupmode="layer"
     inkscape:label="レイヤー 1">
    <path
       transform="translate(10.25002,24.03375)"
       d="M 7.7910156 6.9746094 L 7.7910156 13.447266 L 0 13.447266 L 15.941406 21.904297 L 31.884766 13.447266 L 24.09375 13.447266 L 24.09375 6.9746094 L 21.960938 6.9746094 C 21.905384 10.036583 21.960594 13.582232 20.164062 16.074219 C 19.188536 17.427381 17.101656 17.43969 14.939453 17.138672 C 13.332472 16.91495 12.34211 15.558517 11.992188 14.966797 C 11.347047 13.875863 10.941268 13.003908 10.404297 11.910156 C 9.8673269 10.816403 9.099142 9.2556882 8.984375 8.0507812 C 8.93901 7.5745055 9.1459904 7.1832001 9.4648438 6.9746094 L 7.7910156 6.9746094 z M 10.539062 6.9746094 C 10.792297 7.1204542 11.04311 7.3653676 11.261719 7.7519531 L 12.960938 10.757812 L 12.964844 6.9746094 L 10.539062 6.9746094 z "
       inkscape:transform-center-y="1.4092778"
       style="stroke-width:0.334261;paint-order:stroke markers fill"
       id="path833" />
    <g
       id="g883"
       transform="matrix(0.42708073,0,0,0.42708073,-11.492162,18.920641)"
       style="stroke:#000000;fill-opacity:1;stroke-opacity:1;fill:none">
      <path
         sodipodi:nodetypes="ssscscsscscszzsss"
         d="m 98.120706,49.61088 c 4.649654,-6.449581 3.990894,-15.988571 4.253754,-23.589641 0.14405,-4.165365 -4.100004,-4.579006 -4.392237,-1.164943 l -0.10738,1.254484 0.250025,-8.051897 c 0.116421,-3.749273 -5.575344,-4.205972 -5.654223,-0.253533 0,0 0.118468,-1.25867 0.109018,-1.8114 -0.068,-3.977551 -5.786548,-3.962275 -5.915951,0.113978 0,0 -0.134667,0.838605 -0.0887,2.206232 -0.287971,-3.097824 -5.279903,-3.451098 -5.300124,0.672494 l -0.01936,18.17495 -3.978898,-7.03625 c -2.143524,-3.79059 -5.599339,-2.125193 -5.330614,0.696073 0.268724,2.821265 2.067506,6.47571 3.32481,9.036706 1.257304,2.560996 2.206917,4.60484 3.7175,7.159238 0.819336,1.385499 3.139014,4.561676 6.901723,5.085515 5.06275,0.704828 9.946484,0.676392 12.230657,-2.492006 z"
         style="fill:none;fill-opacity:1;stroke:#000000;stroke-width:2.11667;stroke-linecap:butt;stroke-linejoin:round;stroke-miterlimit:4;stroke-dasharray:none;stroke-opacity:1"
         id="path875" />
      <path
         sodipodi:nodetypes="cc"
         id="path877"
         d="m 97.874843,26.11078 -0.467692,9.367682"
         style="fill:none;fill-opacity:1;stroke:#000000;stroke-width:2.11667;stroke-linecap:round;stroke-linejoin:miter;stroke-miterlimit:4;stroke-dasharray:none;stroke-opacity:1" />
      <path
         sodipodi:nodetypes="cc"
         id="path879"
         d="M 92.470645,17.80535 91.91978,35.068754"
         style="fill:none;fill-opacity:1;stroke:#000000;stroke-width:2.11667;stroke-linecap:round;stroke-linejoin:round;stroke-miterlimit:4;stroke-dasharray:none;stroke-opacity:1" />
      <path
         sodipodi:nodetypes="cc"
         id="path881"
         d="m 86.575012,18.31416 0.07603,16.554142"
         style="fill:none;fill-opacity:1;stroke:#000000;stroke-width:2.11667;stroke-linecap:round;stroke-linejoin:miter;stroke-miterlimit:4;stroke-dasharray:none;stroke-opacity:1" />
    </g>
  </g>
</svg>
