<?xml version="1.0" encoding="UTF-8" standalone="no"?>
<svg
   xmlns:dc="http://purl.org/dc/elements/1.1/"
   xmlns:cc="http://creativecommons.org/ns#"
   xmlns:rdf="http://www.w3.org/1999/02/22-rdf-syntax-ns#"
   xmlns:svg="http://www.w3.org/2000/svg"
   xmlns="http://www.w3.org/2000/svg"
   xmlns:sodipodi="http://sodipodi.sourceforge.net/DTD/sodipodi-0.dtd"
   xmlns:inkscape="http://www.inkscape.org/namespaces/inkscape"
   viewBox="0 0 46.000001 46.000001"
   version="1.1"
   id="main"
   inkscape:version="1.0 (4035a4fb49, 2020-05-01)"
   sodipodi:docname="info.svg">
  <defs
     id="defs2">
    <inkscape:path-effect
       effect="fillet_chamfer"
       id="path-effect957"
       is_visible="true"
       lpeversion="1"
       satellites_param="F,0,0,1,0,1.3229167,0,1 @ F,0,0,1,0,1.3229167,0,1 @ F,0,0,1,0,1.3229167,0,1 @ F,0,0,1,0,1.3229167,0,1 @ F,0,0,1,0,1.3229167,0,1 @ F,0,0,1,0,1.3229167,0,1 @ F,0,0,1,0,1.3229167,0,1 @ F,0,0,1,0,1.3229167,0,1 @ F,0,0,1,0,1.3229167,0,1 @ F,0,0,1,0,1.3229167,0,1"
       unit="px"
       method="auto"
       mode="F"
       radius="5"
       chamfer_steps="1"
       flexible="false"
       use_knot_distance="true"
       apply_no_radius="true"
       apply_with_radius="true"
       only_selected="false"
       hide_knots="false" />
    <inkscape:path-effect
       effect="fillet_chamfer"
       id="path-effect933"
       is_visible="true"
       lpeversion="1"
       satellites_param="F,0,1,1,0,7.4083333,0,1 @ F,0,1,1,0,7.4083333,0,1 @ F,0,1,1,0,7.4083333,0,1 @ F,0,1,1,0,7.4083333,0,1 @ F,0,1,1,0,7.4083333,0,1 @ F,0,1,1,0,7.4083333,0,1 @ F,0,1,1,0,7.4083333,0,1 @ F,0,1,1,0,7.4083333,0,1 @ F,0,1,1,0,7.4083333,0,1 @ F,0,1,1,0,7.4083333,0,1 @ F,0,1,1,0,7.4083333,0,1 @ F,0,1,1,0,7.4083333,0,1 @ F,0,1,1,0,7.4083333,0,1 @ F,0,1,1,0,7.4083333,0,1 @ F,0,1,1,0,7.4083333,0,1 @ F,0,1,1,0,7.4083333,0,1 @ F,0,1,1,0,7.4083333,0,1 @ F,0,1,1,0,7.4083333,0,1 @ F,0,1,1,0,7.4083333,0,1 @ F,0,1,1,0,7.4083333,0,1 @ F,0,1,1,0,7.4083333,0,1 @ F,0,1,1,0,7.4083333,0,1 @ F,0,1,1,0,7.4083333,0,1 @ F,0,1,1,0,7.4083333,0,1 @ F,0,1,1,0,7.4083333,0,1 @ F,0,1,1,0,7.4083333,0,1 | F,0,0,1,0,0,0,1 @ F,0,0,1,0,0,0,1 @ F,0,0,1,0,0,0,1 @ F,0,0,1,0,0,0,1 @ F,0,0,1,0,0,0,1 @ F,0,0,1,0,0,0,1"
       unit="px"
       method="auto"
       mode="F"
       radius="28"
       chamfer_steps="1"
       flexible="false"
       use_knot_distance="true"
       apply_no_radius="true"
       apply_with_radius="true"
       only_selected="true"
       hide_knots="false" />
    <inkscape:path-effect
       effect="gears"
       id="path-effect919"
       is_visible="true"
       lpeversion="1"
       teeth="10"
       phi="0"
       min_radius="0.01" />
  </defs>
  <sodipodi:namedview
     id="base"
     pagecolor="#ffffff"
     bordercolor="#666666"
     borderopacity="1.0"
     inkscape:pageopacity="0.0"
     inkscape:pageshadow="2"
     inkscape:zoom="11.2"
     inkscape:cx="22.66269"
     inkscape:cy="32.636948"
     inkscape:document-units="mm"
     inkscape:current-layer="layer1"
     inkscape:document-rotation="0"
     showgrid="false"
     fit-margin-top="0"
     fit-margin-left="0"
     fit-margin-right="0"
     fit-margin-bottom="0"
     viewbox-width="44.67169"
     viewbox-height="46.82195"
     inkscape:window-width="1638"
     inkscape:window-height="1198"
     inkscape:window-x="626"
     inkscape:window-y="121"
     inkscape:window-maximized="0" />
  <metadata
     id="metadata5">
    <rdf:RDF>
      <cc:Work
         rdf:about="">
        <dc:format>image/svg+xml</dc:format>
        <dc:type
           rdf:resource="http://purl.org/dc/dcmitype/StillImage" />
        <dc:title />
      </cc:Work>
    </rdf:RDF>
  </metadata>
  <g
     inkscape:label="レイヤー 1"
     inkscape:groupmode="layer"
     id="layer1"
     transform="translate(-11.110211,-21.888838)">
    <path
       id="path935"
       style="fill-opacity:1;fill-rule:nonzero;stroke:none;stroke-width:3.00094;stroke-miterlimit:4;stroke-dasharray:none;stroke-opacity:1;paint-order:stroke fill markers"
       d="m 22.917969,0.296875 a 22.999999,22.999999 0 0 0 -23.00000025,23 22.999999,22.999999 0 0 0 23.00000025,23 22.999999,22.999999 0 0 0 23,-23 22.999999,22.999999 0 0 0 -23,-23 z m -0.15625,4 a 19,19 0 0 1 0.15625,0 19,19 0 0 1 19,19 19,19 0 0 1 -19,19 19,19 0 0 1 -19.0000002,-19 19,19 0 0 1 18.8437502,-19 z"
       transform="translate(11.192242,21.591963)" />
    <path
       inkscape:path-effect="#path-effect957"
       inkscape:original-d="m 23.819195,38.132979 c 0,0.86263 0,1.72526 0,2.58789 1.936198,0 3.872396,0 5.808594,0 0,5.177083 0,10.354167 0,15.53125 -1.978516,0 -3.957031,0 -5.935547,0 0,0.989583 0,1.979167 0,2.96875 7.070964,0 14.141927,0 21.212891,0 0,-0.989583 0,-1.979167 0,-2.96875 -1.914714,0 -3.829427,0 -5.744141,0 0,-6.039713 0,-12.079427 0,-18.11914 -5.113932,0 -10.227865,0 -15.341797,0 z"
       id="rect944"
       style="fill-opacity:1;fill-rule:nonzero;stroke:none;stroke-width:2.82489;stroke-miterlimit:4;stroke-dasharray:none;stroke-opacity:1;paint-order:stroke fill markers"
       d="m 23.819195,39.455896 a 1.2942693,1.2942693 43.71735 0 0 1.322917,1.264973 h 3.16276 a 1.3229167,1.3229167 45 0 1 1.322917,1.322917 v 12.885416 a 1.3229167,1.3229167 135 0 1 -1.322917,1.322917 l -3.289713,0 a 1.3229167,1.3229167 135 0 0 -1.322917,1.322917 v 0.322916 a 1.3229167,1.3229167 45 0 0 1.322917,1.322917 h 18.567057 a 1.3229167,1.3229167 135 0 0 1.322917,-1.322917 v -0.322916 a 1.3229167,1.3229167 45 0 0 -1.322917,-1.322917 l -3.098307,0 A 1.3229167,1.3229167 45 0 1 39.160992,54.929202 V 39.455896 A 1.3229167,1.3229167 45 0 0 37.838075,38.132979 H 25.142112 a 1.3229167,1.3229167 135 0 0 -1.322917,1.322917 z" />
    <ellipse
       style="fill-opacity:1;fill-rule:nonzero;stroke:none;stroke-width:2.82368;stroke-miterlimit:4;stroke-dasharray:none;stroke-opacity:1;paint-order:stroke fill markers"
       id="path950"
       cx="34.267918"
       cy="32.419559"
       rx="4.9560609"
       ry="4.3878503" />
  </g>
</svg>
